<svg xmlns="http://www.w3.org/2000/svg" width="83.773" height="83.773" viewBox="0 0 83.773 83.773"><g transform="translate(1.351 1.838)"><g transform="translate(64.857 39.325)"><path d="M397.4,243.72v18.52c0,.292-.013.583-.042.872a9.22,9.22,0,0,1-2.66,5.653,9.224,9.224,0,0,1-2.68-5.895c-.015-.209-.022-.419-.022-.63V243.72a5.413,5.413,0,0,0,5.4,0Z" transform="translate(-392 -243.72)" fill="#e6e9ed"/></g><g transform="translate(29.25 25.185)"><path d="M181.18,171.286l.841,1.067h0a42.306,42.306,0,0,1,10.443,1.773V160Z" transform="translate(-181.18 -160)" fill="#e6e9ed"/></g><g transform="translate(8.107 11.059)"><path d="M85.555,77.145a58.85,58.85,0,0,1-9.19,1.081v0L56,98.594v3.04a41.748,41.748,0,0,1,5.4-.338V99.945a2.657,2.657,0,0,1,.24-1.111,2.7,2.7,0,0,1,2.463-1.591h4.874a9.415,9.415,0,0,1,3.79.794L88.428,82.379V76.36A22.943,22.943,0,0,1,85.555,77.145Z" transform="translate(-56 -76.36)" fill="#e6e9ed"/></g><g transform="translate(8.107 11.059)"><path d="M68.25,78.236,56,90.487V76.36A46.388,46.388,0,0,0,68.25,78.236Z" transform="translate(-56 -76.36)" fill="#e6e9ed"/></g><g transform="translate(24.879 22.483)"><path d="M169.606,148.054l-4.054,4.054-5.881,5.881-.736-.932a9.446,9.446,0,0,0-3.635-2.8l2.145-2.145,4.054-4.054L165.552,144Z" transform="translate(-155.3 -144)" fill="#ccd1d9"/></g><g transform="translate(35.131 17.078)"><path d="M221.4,113.351v6.756l-1.351,1.351L216,117.4l5.4-5.4Z" transform="translate(-216 -112)" fill="#ccd1d9"/></g><g transform="translate(8.107 12.925)"><path d="M76.366,87.41v0l-1.449,1.449-4.054,4.054-4.054,4.054-4.054,4.054L58.7,105.075l-2.7,2.7V99.67L68.25,87.42c1.279.059,2.6.09,3.964.09C73.64,87.51,75.03,87.476,76.366,87.41Z" transform="translate(-56 -87.41)" fill="#ccd1d9"/></g><g transform="translate(55.398 67.072)"><path d="M360.882,408.791a2.7,2.7,0,0,1-1.912,4.614H336c9.11,0,14.669-3.047,17.606-5.4h5.364A2.7,2.7,0,0,1,360.882,408.791Z" transform="translate(-336 -408)" fill="#ccd1d9"/></g><g transform="translate(0 69.774)"><path d="M88.28,425.912a2.7,2.7,0,0,0,.79-1.912,10.809,10.809,0,0,1-10.809,10.809H37.726A4.048,4.048,0,0,1,35.294,434l-4.324-3.243L29.47,433a4.051,4.051,0,0,1-3.371,1.805H12.613A4.613,4.613,0,0,1,8,430.2V426.7H86.368A2.7,2.7,0,0,0,88.28,425.912Z" transform="translate(-8 -424)" fill="#aab2bd"/></g><g transform="translate(0 40.048)"><path d="M81,275.024c-2.937,2.358-8.5,5.4-17.606,5.4H37.726L32.64,270.257a10.931,10.931,0,0,0-9.777-6.043H8V248c0,2.238,6.05,4.054,13.512,4.054a62.022,62.022,0,0,0,10.867-.824l.618.824A33.78,33.78,0,0,0,60.02,265.565H63.88a33.764,33.764,0,0,0,5.477.7l3.522.16a9.224,9.224,0,0,0,2.68,5.894,9.221,9.221,0,0,0,2.66-5.653l1.547.071a4.085,4.085,0,0,1,2.726,6.948A17.274,17.274,0,0,1,81,275.024Z" transform="translate(-8 -248)" fill="#dfb28b"/></g><g transform="translate(62.154 29.239)"><path d="M384.107,194.087a5.405,5.405,0,1,1,2.7-4.682A5.385,5.385,0,0,1,384.107,194.087Z" transform="translate(-376 -184)" fill="#ff826e"/></g><g transform="translate(24.379 40.693)"><path d="M183.841,268.74h-3.859a33.78,33.78,0,0,1-27.024-13.512l-.618-.824a31.1,31.1,0,0,0,8.2-2.584l3.114,3.945.681.861a33.787,33.787,0,0,0,19.5,12.113Z" transform="translate(-152.34 -251.82)" fill="#ecc19c"/></g><g transform="translate(35.696 41.399)"><path d="M226.891,256v5.4c0,.877-1.3,1.689-3.51,2.353a33.483,33.483,0,0,1-3.351-3.657l-.681-.861C223.931,258.5,226.891,257.324,226.891,256Z" transform="translate(-219.35 -256)" fill="#fcd770"/></g><g transform="translate(5.405 3.566)"><path d="M72.258,40.278a58.848,58.848,0,0,1-9.19,1.081c-1.336.066-2.726.1-4.152.1-1.36,0-2.685-.03-3.964-.09A46.39,46.39,0,0,1,42.7,39.492c-1.716-.61-2.7-1.324-2.7-2.088V32c0,2.238,8.469,4.054,18.917,4.054S77.833,34.238,77.833,32v5.4c0,.763-.986,1.478-2.7,2.088A22.939,22.939,0,0,1,72.258,40.278Z" transform="translate(-40 -32)" fill="#fcd770"/></g><g transform="translate(30.092 37.538)"><path d="M199.315,237c0,1.324-2.961,2.5-7.541,3.239L188.66,236.3l-2.49-3.155a42.3,42.3,0,0,1,10.443,1.773C198.329,235.523,199.315,236.238,199.315,237Z" transform="translate(-186.17 -233.14)" fill="#ffeaa7"/></g><g transform="translate(5.2 0)"><ellipse cx="18.845" cy="3.533" rx="18.845" ry="3.533" transform="translate(0)" fill="#ffeaa7"/></g><g transform="translate(13.512 31.941)"><path d="M104.581,205.6l2.49,3.155a31.1,31.1,0,0,1-8.2,2.584A62.024,62.024,0,0,1,88,212.161V202.7a2.657,2.657,0,0,1,.24-1.111A2.7,2.7,0,0,1,90.7,200h4.874A9.472,9.472,0,0,1,103,203.6l.736.932.841,1.067Z" transform="translate(-88 -200)" fill="#d3a06c"/></g><g transform="translate(0 56.262)"><path d="M32.64,350.043l5.085,10.171H8V344H22.863A10.931,10.931,0,0,1,32.64,350.043Z" transform="translate(-8 -344)" fill="#e6e9ed"/></g><g transform="translate(0 35.995)"><path d="M21.512,224v8.107C14.05,232.107,8,230.291,8,228.054c0-1.662,3.336-3.091,8.107-3.716A41.74,41.74,0,0,1,21.512,224Z" transform="translate(-8 -224)" fill="#cf9e76"/></g></g><g transform="translate(0 0)"><path d="M79.72,67.559H77.563a5.44,5.44,0,0,0-4.384-8.283l-.215-.01V41.883a6.753,6.753,0,0,0-2.7-12.021V28.375a1.353,1.353,0,0,1,1.351-1.351H79.72a4.054,4.054,0,0,0,0-8.107H43.238v-5.1c1.828-.806,2.7-1.791,2.7-3.01V5.4c0-1.891-2.1-3.221-6.609-4.187A68.4,68.4,0,0,0,25.672,0,68.4,68.4,0,0,0,12.013,1.217C7.5,2.183,5.4,3.514,5.4,5.4v5.4c0,1.219.874,2.2,2.7,3.01V37.005a26.015,26.015,0,0,0-3.187.721C1.656,38.705,0,40.105,0,41.886V77.809a5.964,5.964,0,0,0,5.964,5.964H19.449a5.393,5.393,0,0,0,4.5-2.407l.707-1.06,3.181,2.386a5.441,5.441,0,0,0,3.243,1.081H71.612A12.174,12.174,0,0,0,83.773,71.612,4.058,4.058,0,0,0,79.72,67.559Zm1.351,4.054a1.353,1.353,0,0,1-1.351,1.351h-9.41a23.366,23.366,0,0,0,4.516-2.7H79.72A1.353,1.353,0,0,1,81.071,71.612Zm-5.4-6.905a2.705,2.705,0,0,1-.783,1.916c-2.344,2.368-7.817,6.34-18.133,6.34H31.912L27.2,63.539a12.215,12.215,0,0,0-10.986-6.79v2.7a9.528,9.528,0,0,1,8.569,5.3l4.108,8.216H2.7V59.452h5.4v-2.7H2.7V45.2a14.376,14.376,0,0,0,2.218.849,36.042,36.042,0,0,0,9.942,1.244,65.286,65.286,0,0,0,10.284-.7l.12.16A35.13,35.13,0,0,0,53.372,60.8H57.09a35.183,35.183,0,0,0,5.556.7l2.387.108a10.5,10.5,0,0,0,2.921,5.552l.955.956.955-.956a10.5,10.5,0,0,0,2.851-5.2l.339.015A2.73,2.73,0,0,1,75.666,64.707ZM10.809,27.583,22.245,16.148c1.121.043,2.266.066,3.428.066.266,0,.531,0,.8,0L10.809,31.869Zm13.512-5.4,6.2,6.2-2.143,2.143-6.2-6.2ZM37.611,45.01,34.449,41c5.332.608,7.96,1.633,8.664,2.229C42.631,43.627,41.116,44.378,37.611,45.01ZM32.7,38.118l3.779-3.779,4.054,4.054v.941A48.747,48.747,0,0,0,32.7,38.118Zm7.832-3.547-2.143-2.143,2.143-2.143Zm-9.823,1.716a10.832,10.832,0,0,0-2.255-2.03l8.024-8.024,2.143,2.143ZM20.268,26.232l6.2,6.2-.565.565a10.843,10.843,0,0,0-3.458-.565h-.261l-4.054-4.054Zm2.172,8.9A8.061,8.061,0,0,1,28.8,38.214L31.8,42.005c-3.146,1.3-7.632,2.454-15.582,2.572v-8.1a1.353,1.353,0,0,1,1.351-1.351ZM33.53,44.2l3.138,3.975a35.113,35.113,0,0,0,11.568,9.506A32.627,32.627,0,0,1,28.112,46a32.051,32.051,0,0,0,5.419-1.8Zm7.9,5.256q-1-.99-1.919-2.072a19.488,19.488,0,0,0,3.722-1.147v2.276A4.638,4.638,0,0,1,41.434,49.457Zm-.9-22.994-2.143-2.143,2.143-2.143Zm-8.107,0-6.2-6.2,2.143-2.143,6.2,6.2Zm-2.143-10.25.126-.126c1.64-.089,3.213-.225,4.688-.4l-2.672,2.671ZM16.214,30.286l2.143,2.143h-.791a4.035,4.035,0,0,0-2.571.923l-.922-.923Zm54.047,29.4A7.82,7.82,0,0,1,68.91,64.1a7.82,7.82,0,0,1-1.351-4.415V43.1a6.782,6.782,0,0,0,2.7,0Zm2.7-23.2a4.054,4.054,0,1,1-4.054-4.054A4.058,4.058,0,0,1,72.964,36.482ZM79.72,21.619a1.351,1.351,0,1,1,0,2.7H71.612a4.058,4.058,0,0,0-4.054,4.054v1.487a6.753,6.753,0,0,0-2.7,12.021V58.9L62.769,58.8A32.408,32.408,0,0,1,43.65,51.461c1.164-.586,2.29-1.485,2.29-2.818v-5.4c0-1.475-1.383-2.426-2.7-3.013V21.619ZM40.535,18.357,36.482,22.41l-2.143-2.143,5.35-5.35q.439-.1.847-.2Zm-2.58-5.839a68.905,68.905,0,0,1-12.283.994,68.9,68.9,0,0,1-12.283-.994c-3.665-.7-5.007-1.513-5.282-1.832V8.415a20.531,20.531,0,0,0,3.906,1.177,68.4,68.4,0,0,0,13.659,1.217A68.4,68.4,0,0,0,39.331,9.592a20.556,20.556,0,0,0,3.906-1.177v2.271C42.963,11,41.62,11.822,37.956,12.518ZM13.389,3.7A68.9,68.9,0,0,1,25.672,2.7,68.9,68.9,0,0,1,37.956,3.7c3.26.619,4.682,1.334,5.15,1.708-.468.375-1.89,1.09-5.15,1.708a68.905,68.905,0,0,1-12.283.994,68.905,68.905,0,0,1-12.283-.994C10.13,6.495,8.708,5.779,8.239,5.4c.468-.375,1.89-1.09,5.15-1.708ZM12.013,15a53.741,53.741,0,0,0,6.628.932l-7.832,7.832V14.716q.571.145,1.2.281Zm-1.2,20.693,1.351-1.351,1.417,1.418a4.055,4.055,0,0,0-.066.725v.02c-.922.027-1.826.08-2.7.16Zm2.7,3.514v5.364c-6.948-.206-10.549-1.963-10.805-2.682C2.963,41.167,6.564,39.41,13.512,39.2Zm58.1,41.866H31.077a2.72,2.72,0,0,1-1.621-.54l-5.466-4.1L21.7,79.867a2.7,2.7,0,0,1-2.249,1.2H5.964A3.262,3.262,0,0,1,2.7,77.809V75.666H79.72a4.092,4.092,0,0,0,.448-.025,9.47,9.47,0,0,1-8.555,5.43Z" transform="translate(0 0)"/><path d="M64,336h2.7v2.7H64Z" transform="translate(-53.191 -279.251)"/></g></svg>