<svg xmlns="http://www.w3.org/2000/svg" xmlns:xlink="http://www.w3.org/1999/xlink" width="108.914" height="108.914" viewBox="0 0 108.914 108.914"><defs><filter id="a" x="0" y="0" width="108.914" height="108.914" filterUnits="userSpaceOnUse"><feOffset dy="3" input="SourceAlpha"/><feGaussianBlur stdDeviation="3" result="b"/><feFlood flood-opacity="0.161"/><feComposite operator="in" in2="b"/><feComposite in="SourceGraphic"/></filter><clipPath id="c"><rect width="53.616" height="53.615" fill="none"/></clipPath></defs><g transform="translate(-799.5 -2534.157)"><g transform="translate(0 587.946)"><g transform="translate(808.5 1952.211)"><g transform="matrix(1, 0, 0, 1, -9, -6)" filter="url(#a)"><g transform="translate(9 6)" fill="#d8cabd" opacity="0.859"><path d="M 45.45676803588867 89.41407012939453 C 39.52198028564453 89.41407012939453 33.76551818847656 88.25206756591797 28.34726715087891 85.96034240722656 C 23.11311721801758 83.74648284912109 18.41204261779785 80.57682800292969 14.37464332580566 76.5394287109375 C 10.33724308013916 72.50202941894531 7.167593002319336 67.80095672607422 4.953730583190918 62.56679534912109 C 2.662005424499512 57.14855575561523 1.500005483627319 51.39208221435547 1.500005483627319 45.45729446411133 C 1.500005483627319 39.52198028564453 2.662005424499512 33.76551818847656 4.953730583190918 28.34726905822754 C 7.167593002319336 23.11310577392578 10.33724308013916 18.41203117370605 14.37464332580566 14.37464332580566 C 18.41204261779785 10.33724403381348 23.11311721801758 7.167593955993652 28.34726715087891 4.953731060028076 C 33.76551818847656 2.662006139755249 39.52198028564453 1.500006198883057 45.45676803588867 1.500006198883057 C 51.39155578613281 1.500006198883057 57.14802932739258 2.662006139755249 62.56626892089844 4.953731060028076 C 67.80043029785156 7.167593955993652 72.50150299072266 10.33724403381348 76.53890228271484 14.37464332580566 C 80.57630920410156 18.41203117370605 83.74595642089844 23.11310577392578 85.95981597900391 28.34726905822754 C 88.25154113769531 33.76551818847656 89.41354370117188 39.52198028564453 89.41354370117188 45.45676803588867 C 89.41354370117188 51.39208221435547 88.25154113769531 57.14855575561523 85.95981597900391 62.56679534912109 C 83.74595642089844 67.80095672607422 80.57630920410156 72.50202941894531 76.53890228271484 76.5394287109375 C 72.50150299072266 80.57682800292969 67.80043029785156 83.74648284912109 62.56626892089844 85.96034240722656 C 57.14802932739258 88.25206756591797 51.39155578613281 89.41407012939453 45.45676803588867 89.41407012939453 Z" stroke="none"/><path d="M 45.45676803588867 3 C 39.72381210327148 3 34.1639404296875 4.12213134765625 28.93159484863281 6.335227966308594 C 23.87622833251953 8.473472595214844 19.33542633056641 11.53517150878906 15.43529510498047 15.435302734375 C 11.53517150878906 19.33543395996094 8.473464965820312 23.87622833251953 6.335227966308594 28.93160247802734 C 4.122123718261719 34.16394424438477 3 39.72381591796875 3 45.4572868347168 C 3 51.19024658203125 4.122123718261719 56.75011825561523 6.335227966308594 61.98246002197266 C 8.473464965820312 67.03782653808594 11.53517150878906 71.57862854003906 15.43529510498047 75.478759765625 C 19.33542633056641 79.37889099121094 23.87622833251953 82.44058990478516 28.93159484863281 84.57883453369141 C 34.1639404296875 86.79193115234375 39.72381210327148 87.9140625 45.45676803588867 87.9140625 C 51.18972396850586 87.9140625 56.74959564208984 86.79193115234375 61.98194122314453 84.57883453369141 C 67.03730773925781 82.44058990478516 71.57810974121094 79.37889099121094 75.47824096679688 75.478759765625 C 79.37837219238281 71.57862854003906 82.44007110595703 67.03782653808594 84.57830810546875 61.98246002197266 C 86.79141235351562 56.75011825561523 87.91353607177734 51.19024658203125 87.91353607177734 45.4567756652832 C 87.91353607177734 39.72381591796875 86.79141235351562 34.16394424438477 84.57830810546875 28.93160247802734 C 82.44007110595703 23.87622833251953 79.37837219238281 19.33543395996094 75.47824096679688 15.435302734375 C 71.57810974121094 11.53517150878906 67.03730773925781 8.473472595214844 61.98194122314453 6.335227966308594 C 56.74959564208984 4.12213134765625 51.18972396850586 3 45.45676803588867 3 M 45.45676803588867 0 C 70.56185150146484 0 90.91353607177734 20.35169219970703 90.91353607177734 45.4567756652832 L 90.91353607177734 45.4572868347168 C 90.91353607177734 70.5623779296875 70.56185150146484 90.9140625 45.45676803588867 90.9140625 C 20.3516845703125 90.9140625 0 70.5623779296875 0 45.4572868347168 L 0 45.4567756652832 C 0 20.35169219970703 20.3516845703125 0 45.45676803588867 0 Z" stroke="none" fill="#fff"/></g></g><g transform="translate(0 0)" fill="none"><path d="M45.457,0A45.457,45.457,0,0,1,90.914,45.457h0A45.457,45.457,0,0,1,0,45.457H0A45.457,45.457,0,0,1,45.457,0Z" stroke="none"/><path d="M 45.45676803588867 3 C 39.72381210327148 3 34.1639404296875 4.12213134765625 28.93159484863281 6.335227966308594 C 23.87622833251953 8.473472595214844 19.33542633056641 11.53517150878906 15.43529510498047 15.435302734375 C 11.53517150878906 19.33543395996094 8.473464965820312 23.87622833251953 6.335227966308594 28.93160247802734 C 4.122123718261719 34.16394424438477 3 39.72381591796875 3 45.4572868347168 C 3 51.19024658203125 4.122123718261719 56.75011825561523 6.335227966308594 61.98246002197266 C 8.473464965820312 67.03782653808594 11.53517150878906 71.57862854003906 15.43529510498047 75.478759765625 C 19.33542633056641 79.37889099121094 23.87622833251953 82.44058990478516 28.93159484863281 84.57883453369141 C 34.1639404296875 86.79193115234375 39.72381210327148 87.9140625 45.45676803588867 87.9140625 C 51.18972396850586 87.9140625 56.74959564208984 86.79193115234375 61.98194122314453 84.57883453369141 C 67.03730773925781 82.44058990478516 71.57810974121094 79.37889099121094 75.47824096679688 75.478759765625 C 79.37837219238281 71.57862854003906 82.44007110595703 67.03782653808594 84.57830810546875 61.98246002197266 C 86.79141235351562 56.75011825561523 87.91353607177734 51.19024658203125 87.91353607177734 45.4567756652832 C 87.91353607177734 39.72381591796875 86.79141235351562 34.16394424438477 84.57830810546875 28.93160247802734 C 82.44007110595703 23.87622833251953 79.37837219238281 19.33543395996094 75.47824096679688 15.435302734375 C 71.57810974121094 11.53517150878906 67.03730773925781 8.473472595214844 61.98194122314453 6.335227966308594 C 56.74959564208984 4.12213134765625 51.18972396850586 3 45.45676803588867 3 M 45.45676803588867 0 C 70.56185150146484 0 90.91353607177734 20.35169219970703 90.91353607177734 45.4567756652832 L 90.91353607177734 45.4572868347168 C 90.91353607177734 70.5623779296875 70.56185150146484 90.9140625 45.45676803588867 90.9140625 C 20.3516845703125 90.9140625 0 70.5623779296875 0 45.4572868347168 L 0 45.4567756652832 C 0 20.35169219970703 20.3516845703125 0 45.45676803588867 0 Z" stroke="none" fill="#fff"/></g></g></g><g transform="translate(830.413 2558.808)"><g transform="translate(0 0)" clip-path="url(#c)"><path d="M60.645,29.828a4.529,4.529,0,0,1-.545.5,31.3,31.3,0,0,1-6.276,3.359,12.19,12.19,0,0,1-5.452.825,18.351,18.351,0,0,1-3.8-.886,25.366,25.366,0,0,0-5.19-1.138c-.755-.074-1.514-.118-2.273-.132a.57.57,0,0,0-.433.306,8.965,8.965,0,0,0-.4,1.546c-.078.505-.238.717-.745.717q-3.93,0-7.86,0c-.471,0-.642-.154-.723-.628a17.381,17.381,0,0,1-.042-3.655,11.409,11.409,0,0,0-.037-1.444,19.478,19.478,0,0,1,.617-6.267.575.575,0,0,1,.868-.4,15.226,15.226,0,0,0,3.632,1.113A10.445,10.445,0,0,0,40.9,21.19a.629.629,0,0,1,1.021.04,18.667,18.667,0,0,0,5.1,3.745,13.489,13.489,0,0,0,5.185,1.442c1.7.1,3.389.312,5.079.518a7.223,7.223,0,0,1,1.516.416,2.749,2.749,0,0,1,1.838,1.684Zm-25.511,3.9c.129-.5.259-1,.393-1.523a41.842,41.842,0,0,1-7.46-1.362c-.024.227-.059.41-.061.594-.008.626-.007,1.253,0,1.88a3.556,3.556,0,0,0,.051.415,1.283,1.283,0,0,0,.278.06q3.266.005,6.53,0a1.205,1.205,0,0,0,.271-.065m-.027-2.7c1.224.088,2.393.159,3.559.262a20.224,20.224,0,0,1,2.606.311c1.427.317,2.835.726,4.245,1.118a15.911,15.911,0,0,0,3.37.677,10.908,10.908,0,0,0,4.286-.694,28.931,28.931,0,0,0,6.045-3.17c.294-.192.344-.339.066-.549a3.927,3.927,0,0,0-1.191-.657,26.973,26.973,0,0,0-5.592-.735,12.894,12.894,0,0,1-3.829-.687c-.211-.084-.273-.041-.329.183a5,5,0,0,1-1.3,2.364.786.786,0,0,1-.916.2,16.908,16.908,0,0,0-5.262-1.032,7.865,7.865,0,0,0-4.011.809,4.668,4.668,0,0,0-1.747,1.595m-6.6-7.164a1.114,1.114,0,0,0-.1.22,18.162,18.162,0,0,0-.407,5.2.445.445,0,0,0,.35.436,30.763,30.763,0,0,0,5.222,1.107.411.411,0,0,0,.429-.205,10.691,10.691,0,0,1,1.275-1.5,7.41,7.41,0,0,1,4.74-1.666c.393-.021.788,0,1.2,0,.039-.246.07-.462.107-.677a13.863,13.863,0,0,1,1.018-3.315c.029-.065.039-.189,0-.227-.313-.3-.639-.593-.947-.873-4.015,3.1-8.337,3.239-12.884,1.5m14.826.184a11.017,11.017,0,0,0-.959,3.5l1.478.243c.273-.913.538-1.788.789-2.666a.286.286,0,0,0-.1-.239c-.379-.278-.769-.54-1.2-.842m2.3,1.53c-.2.8-.4,1.564-.575,2.337-.015.067.1.21.178.243.283.112.588.171.87.288a.3.3,0,0,0,.415-.125,4.012,4.012,0,0,0,.756-1.727.3.3,0,0,0-.105-.263c-.482-.251-.976-.481-1.539-.752" transform="translate(-7.571 -5.915)" fill="#090809"/><path d="M54.4,41.2a17.288,17.288,0,0,1-5.4-.726c-1.495-.423-2.995-.835-4.51-1.175a16.394,16.394,0,0,0-2.357-.245c-.46-.034-.688-.216-.68-.617.009-.381.239-.576.684-.574a20.44,20.44,0,0,1,5.679,1.018c1.227.362,2.465.7,3.717.961a11.667,11.667,0,0,0,6.041-.484,26.789,26.789,0,0,0,5.731-2.755c.113-.069.224-.139.339-.2a.579.579,0,0,1,.855.179.56.56,0,0,1-.227.819,25.245,25.245,0,0,1-7.416,3.375c-.968.229-1.963.342-2.459.426" transform="translate(-11.705 -10.247)" fill="#0c0b0d"/><path d="M34.591,22.062a13.151,13.151,0,0,1-5.148-1.2.563.563,0,0,1-.326-.785.592.592,0,0,1,.827-.3,12.609,12.609,0,0,0,2.932.929,8.121,8.121,0,0,0,7.046-1.79.585.585,0,1,1,.782.864,8.06,8.06,0,0,1-3.58,1.93c-.823.21-1.679.291-2.521.431Z" transform="translate(-8.205 -5.287)" fill="#0c0b0d"/><path d="M47.46,14.278c-.37,0-.69.015-1.008,0a.538.538,0,0,1-.58-.508c-.027-.37.114-.559.51-.639a3.266,3.266,0,0,1,.525-.034c.173-.005.346,0,.552,0,0-.339-.014-.657,0-.972a.565.565,0,0,1,.562-.606c.312,0,.517.182.565.564.041.325.041.654.061,1.019.271,0,.554-.013.836,0a.677.677,0,0,1,.665.344.574.574,0,0,1-.515.828c-.325.027-.654.006-.98.006-.025.385-.029.736-.076,1.08a.505.505,0,0,1-.6.509.524.524,0,0,1-.52-.564c-.02-.327,0-.657,0-1.024" transform="translate(-12.952 -3.251)" fill="#0c0b0d"/><path d="M30.991,16.03c0,.233.008.428,0,.624-.021.446-.235.695-.588.694s-.565-.24-.59-.693c-.011-.2,0-.391,0-.623-.235,0-.454.014-.669,0-.411-.032-.626-.238-.63-.578s.228-.576.644-.6c.207-.011.415,0,.657,0,0-.235-.014-.452,0-.667.032-.432.243-.654.593-.65s.555.238.58.665c.011.206,0,.413,0,.653.239,0,.456-.01.672,0a.592.592,0,0,1,.641.572c.013.335-.206.563-.609.6-.217.021-.438,0-.7,0" transform="translate(-8.051 -3.821)" fill="#0b0b0d"/><path d="M64.962,23.294c0,.225.011.443,0,.66-.026.4-.208.6-.54.619-.371.017-.567-.148-.621-.568a5.488,5.488,0,0,1-.005-.687c-.3-.027-.576-.036-.843-.078a.526.526,0,0,1-.474-.574A.536.536,0,0,1,63,22.129c.249-.022.5,0,.762,0,.022-.3.027-.57.066-.837a.514.514,0,0,1,.561-.486.521.521,0,0,1,.553.5,6.321,6.321,0,0,1,.007.821c.278,0,.517-.013.755,0a.562.562,0,0,1,.048,1.122,3.8,3.8,0,0,1-.393.045c-.119.007-.239,0-.394,0" transform="translate(-17.641 -5.874)" fill="#0c0c0d"/><path d="M38.372,33.353a4.671,4.671,0,0,1,1.747-1.595,7.861,7.861,0,0,1,4.012-.809,16.9,16.9,0,0,1,5.261,1.031.783.783,0,0,0,.916-.2,5.01,5.01,0,0,0,1.3-2.364c.056-.224.118-.267.329-.183a12.886,12.886,0,0,0,3.829.687,26.93,26.93,0,0,1,5.592.734,3.917,3.917,0,0,1,1.19.658c.279.21.228.357-.065.548a28.9,28.9,0,0,1-6.045,3.17,10.912,10.912,0,0,1-4.287.694,15.913,15.913,0,0,1-3.369-.677c-1.41-.392-2.818-.8-4.246-1.117a20.321,20.321,0,0,0-2.606-.312c-1.166-.1-2.334-.174-3.559-.262" transform="translate(-10.835 -8.242)" fill="#b34c0e"/><path d="M28.958,24.417c4.547,1.734,8.869,1.591,12.884-1.5.307.28.634.569.947.873.039.037.029.161,0,.226a13.858,13.858,0,0,0-1.018,3.316c-.037.215-.068.431-.107.677-.407,0-.8-.017-1.2,0a7.409,7.409,0,0,0-4.74,1.665,10.7,10.7,0,0,0-1.275,1.5.411.411,0,0,1-.429.2A30.617,30.617,0,0,1,28.8,30.268a.443.443,0,0,1-.351-.436,18.165,18.165,0,0,1,.407-5.2,1.11,1.11,0,0,1,.1-.22" transform="translate(-8.019 -6.47)" fill="#b34c0e"/><path d="M28.522,37.624a3.568,3.568,0,0,1-.051-.416c-.005-.626-.006-1.253,0-1.879,0-.184.037-.367.061-.594a41.84,41.84,0,0,0,7.46,1.361c-.134.522-.264,1.023-.393,1.524l-7.079,0" transform="translate(-8.038 -9.808)" fill="#7a350f"/><path d="M49.461,25.265c.436.3.826.564,1.2.841a.289.289,0,0,1,.1.239c-.251.879-.517,1.754-.789,2.667L48.5,28.768a10.975,10.975,0,0,1,.959-3.5" transform="translate(-13.696 -7.134)" fill="#b34c0f"/><path d="M52.821,27.4c.563.271,1.056.5,1.539.752a.3.3,0,0,1,.105.263,4.012,4.012,0,0,1-.756,1.727.3.3,0,0,1-.415.125c-.281-.118-.586-.177-.87-.288-.083-.032-.193-.176-.178-.243.177-.772.375-1.54.575-2.337" transform="translate(-14.752 -7.736)" fill="#b24d10"/><path d="M28.544,38.759l7.079,0a1.205,1.205,0,0,1-.271.065q-3.265.005-6.53,0a1.327,1.327,0,0,1-.278-.06" transform="translate(-8.06 -10.943)" fill="#654029"/><path d="M67.4,42.253l.057-.051-.057.051" transform="translate(-19.032 -11.917)" fill="#504b51"/><path d="M44.555,34.807a1.468,1.468,0,0,1,1.7-1.236c1.941.04,3.884.006,5.826.015,1.107.005,1.527.415,1.529,1.517q.011,8.48,0,16.96c0,1.155-.408,1.549-1.582,1.549q-25.219,0-50.437,0C.386,53.613,0,53.221,0,51.985Q0,26.806,0,1.627C0,.39.382.005,1.6,0Q8.466,0,15.336,0c1.182,0,1.58.385,1.59,1.541.013,1.508-.016,3.015.009,4.522a1.356,1.356,0,0,1-1.275,1.558,1.428,1.428,0,0,1-1.226-1.689c.052-1.142.012-2.289.012-3.393H2.525V7.818c1.517,0,2.987-.011,4.457.005A1.116,1.116,0,0,1,8.208,8.995,1.2,1.2,0,0,1,6.98,10.276c-.637.029-1.275.007-1.913.007H2.547V16.7c1.516,0,2.962-.018,4.408.007a1.155,1.155,0,0,1,1.254,1.318,1.213,1.213,0,0,1-1.371,1.131c-1.437.011-2.873,0-4.308,0v6.422c1.436,0,2.821,0,4.206,0,.97,0,1.459.408,1.475,1.195.017.829-.481,1.252-1.5,1.257-1.383.006-2.765,0-4.166,0v6.423c1.484,0,2.9-.011,4.321,0,.917.01,1.465.591,1.335,1.415a1.185,1.185,0,0,1-1.358,1.046c-1.437-.007-2.873,0-4.309,0v6.414c1.5,0,2.947-.06,4.386.037a1.706,1.706,0,0,1,1.186.788,1.453,1.453,0,0,1-.244,1.246,1.539,1.539,0,0,1-1.078.381c-1.409.042-2.82.017-4.242.017v5.284H14.447V50q0-19.656-.018-39.312c0-1,.247-1.682,1.236-1.986,1,.273,1.288.939,1.284,1.954-.034,7.247-.019,14.5-.019,21.743v1.137c.4.017.729.044,1.063.044q11.653,0,23.3-.009c.923,0,1.5.314,1.7,1.238-.208.954-.806,1.267-1.764,1.264-7.735-.025-15.471-.014-23.207-.014H16.953V51.081H51.069V36.06c-1.6,0-3.137-.042-4.667.015-.981.037-1.631-.26-1.846-1.267" transform="translate(0 0)" fill="#050607"/><path d="M16.657,9.7c-.989.3-1.238.989-1.236,1.986q.041,19.656.018,39.313v1.084H3.532V46.8c1.422,0,2.833.025,4.243-.017a1.534,1.534,0,0,0,1.077-.381A1.453,1.453,0,0,0,9.1,45.16a1.708,1.708,0,0,0-1.186-.788c-1.438-.1-2.887-.037-4.386-.037V37.922c1.436,0,2.873-.006,4.309,0a1.186,1.186,0,0,0,1.358-1.046c.131-.824-.417-1.405-1.335-1.414-1.418-.015-2.837,0-4.321,0V29.036c1.4,0,2.784.005,4.166,0,1.02,0,1.519-.428,1.5-1.257-.017-.787-.505-1.191-1.475-1.195-1.385-.006-2.769,0-4.206,0V20.159c1.435,0,2.871.008,4.308,0A1.213,1.213,0,0,0,9.2,19.025a1.155,1.155,0,0,0-1.254-1.318C6.5,17.682,5.055,17.7,3.54,17.7V11.284H6.061c.637,0,1.276.022,1.912-.007A1.2,1.2,0,0,0,9.2,10,1.116,1.116,0,0,0,7.975,8.824c-1.47-.017-2.94,0-4.457,0V3.544H15.439c0,1.1.04,2.25-.012,3.393a1.428,1.428,0,0,0,1.227,1.689q0,.539,0,1.078" transform="translate(-0.993 -1.001)" fill="#fdb52a"/><path d="M51.225,48.5c.215,1.008.865,1.3,1.846,1.267,1.53-.057,3.064-.015,4.667-.015V64.777H23.623V49.755h1.068c7.735,0,15.471-.011,23.207.014.959,0,1.557-.311,1.765-1.264l1.563,0M40.68,52.126q-6.519,0-13.037,0c-1.429,0-1.722.294-1.726,1.747q-.009,3.477,0,6.954c.006,1.324.334,1.656,1.656,1.657q13.124.008,26.247,0c1.3,0,1.625-.345,1.628-1.675q.012-3.521,0-7.041c-.005-1.336-.313-1.64-1.647-1.64q-6.562-.005-13.124,0" transform="translate(-6.67 -13.696)" fill="#f7a400"/><path d="M41.58,53.552q6.562,0,13.124,0c1.334,0,1.643.3,1.647,1.64q.013,3.521,0,7.041c0,1.33-.33,1.674-1.628,1.675q-13.124.009-26.248,0c-1.323,0-1.65-.332-1.656-1.656q-.016-3.477,0-6.954c0-1.453.3-1.747,1.726-1.747q6.518,0,13.036,0m12.214,2.529h-24.4v5.3h24.4Z" transform="translate(-7.571 -15.121)" fill="#090806"/><rect width="24.4" height="5.303" transform="translate(21.823 40.959)" fill="#f68b24"/></g></g></g></svg>