<svg xmlns="http://www.w3.org/2000/svg" xmlns:xlink="http://www.w3.org/1999/xlink" width="108.914" height="108.914" viewBox="0 0 108.914 108.914"><defs><filter id="a" x="0" y="0" width="108.914" height="108.914" filterUnits="userSpaceOnUse"><feOffset dy="3" input="SourceAlpha"/><feGaussianBlur stdDeviation="3" result="b"/><feFlood flood-opacity="0.161"/><feComposite operator="in" in2="b"/><feComposite in="SourceGraphic"/></filter><clipPath id="c"><rect width="59.8" height="53.902" transform="translate(0 0)" fill="none"/></clipPath></defs><g transform="translate(-799.5 -2534.157)"><g transform="translate(0 587.946)"><g transform="translate(808.5 1952.211)"><g transform="matrix(1, 0, 0, 1, -9, -6)" filter="url(#a)"><g transform="translate(9 6)" fill="#d8cabd" opacity="0.859"><path d="M 45.45676803588867 89.41407012939453 C 39.52198028564453 89.41407012939453 33.76551818847656 88.25206756591797 28.34726715087891 85.96034240722656 C 23.11311721801758 83.74648284912109 18.41204261779785 80.57682800292969 14.37464332580566 76.5394287109375 C 10.33724308013916 72.50202941894531 7.167593002319336 67.80095672607422 4.953730583190918 62.56679534912109 C 2.662005424499512 57.14855575561523 1.500005483627319 51.39208221435547 1.500005483627319 45.45729446411133 C 1.500005483627319 39.52198028564453 2.662005424499512 33.76551818847656 4.953730583190918 28.34726905822754 C 7.167593002319336 23.11310577392578 10.33724308013916 18.41203117370605 14.37464332580566 14.37464332580566 C 18.41204261779785 10.33724403381348 23.11311721801758 7.167593955993652 28.34726715087891 4.953731060028076 C 33.76551818847656 2.662006139755249 39.52198028564453 1.500006198883057 45.45676803588867 1.500006198883057 C 51.39155578613281 1.500006198883057 57.14802932739258 2.662006139755249 62.56626892089844 4.953731060028076 C 67.80043029785156 7.167593955993652 72.50150299072266 10.33724403381348 76.53890228271484 14.37464332580566 C 80.57630920410156 18.41203117370605 83.74595642089844 23.11310577392578 85.95981597900391 28.34726905822754 C 88.25154113769531 33.76551818847656 89.41354370117188 39.52198028564453 89.41354370117188 45.45676803588867 C 89.41354370117188 51.39208221435547 88.25154113769531 57.14855575561523 85.95981597900391 62.56679534912109 C 83.74595642089844 67.80095672607422 80.57630920410156 72.50202941894531 76.53890228271484 76.5394287109375 C 72.50150299072266 80.57682800292969 67.80043029785156 83.74648284912109 62.56626892089844 85.96034240722656 C 57.14802932739258 88.25206756591797 51.39155578613281 89.41407012939453 45.45676803588867 89.41407012939453 Z" stroke="none"/><path d="M 45.45676803588867 3 C 39.72381210327148 3 34.1639404296875 4.12213134765625 28.93159484863281 6.335227966308594 C 23.87622833251953 8.473472595214844 19.33542633056641 11.53517150878906 15.43529510498047 15.435302734375 C 11.53517150878906 19.33543395996094 8.473464965820312 23.87622833251953 6.335227966308594 28.93160247802734 C 4.122123718261719 34.16394424438477 3 39.72381591796875 3 45.4572868347168 C 3 51.19024658203125 4.122123718261719 56.75011825561523 6.335227966308594 61.98246002197266 C 8.473464965820312 67.03782653808594 11.53517150878906 71.57862854003906 15.43529510498047 75.478759765625 C 19.33542633056641 79.37889099121094 23.87622833251953 82.44058990478516 28.93159484863281 84.57883453369141 C 34.1639404296875 86.79193115234375 39.72381210327148 87.9140625 45.45676803588867 87.9140625 C 51.18972396850586 87.9140625 56.74959564208984 86.79193115234375 61.98194122314453 84.57883453369141 C 67.03730773925781 82.44058990478516 71.57810974121094 79.37889099121094 75.47824096679688 75.478759765625 C 79.37837219238281 71.57862854003906 82.44007110595703 67.03782653808594 84.57830810546875 61.98246002197266 C 86.79141235351562 56.75011825561523 87.91353607177734 51.19024658203125 87.91353607177734 45.4567756652832 C 87.91353607177734 39.72381591796875 86.79141235351562 34.16394424438477 84.57830810546875 28.93160247802734 C 82.44007110595703 23.87622833251953 79.37837219238281 19.33543395996094 75.47824096679688 15.435302734375 C 71.57810974121094 11.53517150878906 67.03730773925781 8.473472595214844 61.98194122314453 6.335227966308594 C 56.74959564208984 4.12213134765625 51.18972396850586 3 45.45676803588867 3 M 45.45676803588867 0 C 70.56185150146484 0 90.91353607177734 20.35169219970703 90.91353607177734 45.4567756652832 L 90.91353607177734 45.4572868347168 C 90.91353607177734 70.5623779296875 70.56185150146484 90.9140625 45.45676803588867 90.9140625 C 20.3516845703125 90.9140625 0 70.5623779296875 0 45.4572868347168 L 0 45.4567756652832 C 0 20.35169219970703 20.3516845703125 0 45.45676803588867 0 Z" stroke="none" fill="#fff"/></g></g><g transform="translate(0 0)" fill="none"><path d="M45.457,0A45.457,45.457,0,0,1,90.914,45.457h0A45.457,45.457,0,0,1,0,45.457H0A45.457,45.457,0,0,1,45.457,0Z" stroke="none"/><path d="M 45.45676803588867 3 C 39.72381210327148 3 34.1639404296875 4.12213134765625 28.93159484863281 6.335227966308594 C 23.87622833251953 8.473472595214844 19.33542633056641 11.53517150878906 15.43529510498047 15.435302734375 C 11.53517150878906 19.33543395996094 8.473464965820312 23.87622833251953 6.335227966308594 28.93160247802734 C 4.122123718261719 34.16394424438477 3 39.72381591796875 3 45.4572868347168 C 3 51.19024658203125 4.122123718261719 56.75011825561523 6.335227966308594 61.98246002197266 C 8.473464965820312 67.03782653808594 11.53517150878906 71.57862854003906 15.43529510498047 75.478759765625 C 19.33542633056641 79.37889099121094 23.87622833251953 82.44058990478516 28.93159484863281 84.57883453369141 C 34.1639404296875 86.79193115234375 39.72381210327148 87.9140625 45.45676803588867 87.9140625 C 51.18972396850586 87.9140625 56.74959564208984 86.79193115234375 61.98194122314453 84.57883453369141 C 67.03730773925781 82.44058990478516 71.57810974121094 79.37889099121094 75.47824096679688 75.478759765625 C 79.37837219238281 71.57862854003906 82.44007110595703 67.03782653808594 84.57830810546875 61.98246002197266 C 86.79141235351562 56.75011825561523 87.91353607177734 51.19024658203125 87.91353607177734 45.4567756652832 C 87.91353607177734 39.72381591796875 86.79141235351562 34.16394424438477 84.57830810546875 28.93160247802734 C 82.44007110595703 23.87622833251953 79.37837219238281 19.33543395996094 75.47824096679688 15.435302734375 C 71.57810974121094 11.53517150878906 67.03730773925781 8.473472595214844 61.98194122314453 6.335227966308594 C 56.74959564208984 4.12213134765625 51.18972396850586 3 45.45676803588867 3 M 45.45676803588867 0 C 70.56185150146484 0 90.91353607177734 20.35169219970703 90.91353607177734 45.4567756652832 L 90.91353607177734 45.4572868347168 C 90.91353607177734 70.5623779296875 70.56185150146484 90.9140625 45.45676803588867 90.9140625 C 20.3516845703125 90.9140625 0 70.5623779296875 0 45.4572868347168 L 0 45.4567756652832 C 0 20.35169219970703 20.3516845703125 0 45.45676803588867 0 Z" stroke="none" fill="#fff"/></g></g></g><g transform="translate(825.177 2557.126)"><g transform="translate(-0.146 -0.587)"><g clip-path="url(#c)"><path d="M6.062,43.45c.718.722,1.415,1.387,2.07,2.092.983,1.059,1.386,1.065,2.37.008.664-.713,1.37-1.387,2.072-2.093.853.854,1.659,1.666,2.47,2.473a.956.956,0,0,0,1.593-.01c.653-.648,1.307-1.295,1.949-1.953a5.309,5.309,0,0,0,.433-.589c.9.906,1.675,1.686,2.453,2.465.682.684,1.072.685,1.753,0,.786-.786,1.569-1.575,2.379-2.389.66.66,1.3,1.273,1.908,1.917,1.232,1.305,1.487,1.29,2.72-.013.608-.643,1.243-1.259,1.884-1.906.85.851,1.663,1.656,2.464,2.472a.989.989,0,0,0,1.129.342c.48-.186.582-.579.581-1.06q-.014-7.236-.005-14.473v-.515h7.221c.791,0,1.1-.305,1.1-1.079q0-4.185,0-8.368a.915.915,0,0,0-.9-1.064V17.479c.6-.1.9-.41.9-.921s-.3-.818-.9-.92V13.407a.917.917,0,0,0,.9-1.064c0-2.44,0-4.88,0-7.32A5.008,5.008,0,0,0,41.388.35C41.024.209,40.64.115,40.266,0" fill="#fff"/><path d="M40.265,0c.375.116.758.209,1.122.35a5.005,5.005,0,0,1,3.22,4.673q.009,3.66,0,7.32a.916.916,0,0,1-.9,1.064c-.682-.142-.9-.415-.9-1.121,0-2.412.012-4.824,0-7.235a3.256,3.256,0,1,0-6.51.145q0,11.442,0,22.883v.313H42.8V27.93q0-3.572,0-7.145c0-.656.242-.939.9-1.074a.915.915,0,0,1,.9,1.064q0,4.183,0,8.368c0,.774-.313,1.079-1.1,1.079H36.284v.515q0,7.236.006,14.473c0,.481-.1.874-.582,1.06a.987.987,0,0,1-1.128-.342c-.8-.816-1.614-1.621-2.464-2.472-.642.647-1.277,1.264-1.885,1.906-1.233,1.3-1.488,1.318-2.719.013-.608-.644-1.249-1.257-1.908-1.917-.811.814-1.594,1.6-2.38,2.389-.68.681-1.07.68-1.753,0-.777-.778-1.552-1.559-2.452-2.465a5.221,5.221,0,0,1-.434.589c-.641.659-1.295,1.305-1.948,1.953a.956.956,0,0,1-1.593.01c-.812-.807-1.618-1.619-2.47-2.473-.7.707-1.409,1.38-2.072,2.093-.984,1.057-1.387,1.051-2.371-.008-.654-.7-1.351-1.369-2.069-2.092-.842.848-1.644,1.682-2.482,2.478a1.527,1.527,0,0,1-.817.382.818.818,0,0,1-.86-.8c-.011-.134,0-.271,0-.406,0-13.253.021-26.5-.019-39.758A5.246,5.246,0,0,1,5.889.1.693.693,0,0,0,6.062,0Zm-4.61,1.81H7.228A3.279,3.279,0,0,0,3.71,5.338v37.9c.6-.6,1.116-1.139,1.652-1.657a.906.906,0,0,1,1.4-.007c.254.236.493.488.737.734L9.313,44.15c.848-.85,1.643-1.652,2.443-2.449.609-.608,1.038-.6,1.655.009.471.467.942.934,1.407,1.408.333.339.655.689,1,1.053.836-.843,1.6-1.614,2.365-2.383.72-.723,1.1-.724,1.815-.006.775.776,1.546,1.555,2.353,2.368.8-.8,1.559-1.572,2.323-2.338s1.113-.759,1.879.01,1.523,1.534,2.332,2.35c.135-.159.224-.279.329-.385.723-.727,1.444-1.456,2.176-2.173a.919.919,0,0,1,1.461-.007c.349.333.684.681,1.026,1.022l.6.595v-.747q0-18.251-.011-36.5A6.087,6.087,0,0,1,35.655,1.81" fill="#070708"/><path d="M43.705,19.711c-.664.136-.905.418-.905,1.075q0,3.572,0,7.145v.461H36.285v-.313q0-11.441,0-22.882a3.256,3.256,0,1,1,6.509-.146c.016,2.412,0,4.824.005,7.235,0,.706.222.979.905,1.121v2.232q-.906.185-.905.92c0,.49.3.8.905.92v2.232" fill="#f8f6f5"/><path d="M43.7,17.479c-.6-.125-.9-.43-.9-.921s.3-.8.9-.92c.6.1.905.41.905.92s-.3.819-.905.921" fill="#0c0c0d"/><path d="M35.655,1.81a6.092,6.092,0,0,0-1.192,4.165q.031,18.252.012,36.5v.747l-.6-.595c-.342-.341-.677-.689-1.025-1.022a.92.92,0,0,0-1.462.007c-.732.718-1.453,1.446-2.176,2.173-.1.106-.194.226-.328.385-.81-.816-1.57-1.585-2.332-2.35s-1.122-.771-1.88-.01-1.525,1.535-2.322,2.338c-.807-.813-1.579-1.592-2.353-2.368-.716-.718-1.1-.716-1.816.006-.766.769-1.529,1.54-2.365,2.383-.344-.364-.667-.714-1-1.053-.464-.474-.935-.941-1.406-1.408-.618-.613-1.047-.617-1.656-.009-.8.8-1.595,1.6-2.442,2.449L7.5,42.309c-.244-.246-.483-.5-.738-.734a.905.905,0,0,0-1.4.008c-.536.517-1.054,1.054-1.653,1.657V5.338A3.279,3.279,0,0,1,7.229,1.81H35.655ZM26.131,37.441a8.4,8.4,0,0,0,.1,1.076.862.862,0,0,0,.947.66.872.872,0,0,0,.8-.838,4.949,4.949,0,0,0,.007-.678c-.016-.234.062-.332.3-.4a3.78,3.78,0,0,0,1.8-1.148c1.837-2.076,1.433-5.34-1.487-6.361a1.38,1.38,0,0,1-.372-.153c-.1-.076-.23-.2-.231-.309-.017-1.156-.011-2.312-.011-3.566.378.195.69.358,1,.518a.889.889,0,0,0,.979-.053.764.764,0,0,0,.333-.909,1.438,1.438,0,0,0-.576-.695c-.543-.306-1.135-.524-1.724-.785-.077-1.28-.257-1.615-.894-1.629s-.871.374-.963,1.7c-.072.027-.152.064-.236.087a3.324,3.324,0,0,0-2.537,2.908,2.87,2.87,0,0,0,1.757,3.323,1.6,1.6,0,0,1,1.056,1.891c-.067,1.17-.016,2.346-.016,3.682-.632-.281-1.18-.5-1.7-.766a.951.951,0,0,0-1.348.24.916.916,0,0,0,.389,1.308,5.2,5.2,0,0,0,2.629.9M12.488,9.519c.031-.055.059-.107.086-.158A2.723,2.723,0,0,0,10.1,5.248c-.693,0-1.387,0-2.08,0a.921.921,0,0,0-1.035.986q-.016,3.891,0,7.78A.921.921,0,0,0,8.005,15.02q1.313.007,2.623,0a3.08,3.08,0,0,0,1.86-5.5m9.559,10.569c2.7,0,5.4,0,8.1,0a.933.933,0,0,0,.975-.578c.271-.658-.208-1.234-1.017-1.234H14c-.09,0-.181,0-.271,0a.882.882,0,0,0-.805.922c.009.551.389.882,1.028.883q4.049,0,8.1,0m-.419-6.88c0-2.36,0-4.664,0-6.969a.908.908,0,1,0-1.808.007q-.006,3.888,0,7.776a.912.912,0,0,0,.976.995c.874.01,1.748.007,2.622,0a.939.939,0,0,0,1.008-.925.922.922,0,0,0-.994-.884c-.585-.006-1.17,0-1.8,0m6.781,0v-.429q0-3.255,0-6.508a.929.929,0,0,0-.9-1.022A.9.9,0,0,0,26.6,6.257q0,3.886,0,7.773a.9.9,0,0,0,.975.987q1.309.013,2.62,0a.909.909,0,1,0,0-1.809c-.583,0-1.166,0-1.783,0M17.647,10.134c0-1.282,0-2.564,0-3.846,0-.63-.342-1.027-.881-1.039a.92.92,0,0,0-.929,1.04q0,3.846,0,7.691a.924.924,0,0,0,.885,1.04c.558.013.923-.392.925-1.041,0-1.282,0-2.563,0-3.845M16.433,25.155c.858,0,1.716,0,2.574,0a.907.907,0,1,0,0-1.807q-2.552-.008-5.1,0a.907.907,0,1,0,0,1.807c.843.005,1.685,0,2.528,0m.022,5.067c.843,0,1.686,0,2.528,0a.91.91,0,1,0,0-1.808q-2.528,0-5.056,0a.909.909,0,1,0,0,1.808c.843,0,1.685,0,2.528,0m-.034,5.067c.843,0,1.685,0,2.528,0,.645,0,1.055-.364,1.048-.917a.916.916,0,0,0-1.027-.892q-2.505,0-5.011,0c-.661,0-1.044.343-1.038.916s.39.891,1.062.893c.813,0,1.625,0,2.438,0m-7.844-15.2c.286,0,.572.007.858,0a.923.923,0,0,0,.943-.891.914.914,0,0,0-.919-.914q-.88-.02-1.76,0a.9.9,0,0,0-.912.912.9.9,0,0,0,.933.894c.286.008.572,0,.857,0m.016,3.257c-.3,0-.6-.009-.9,0a.9.9,0,0,0-.006,1.805c.6.014,1.2.015,1.805,0a.9.9,0,0,0,.006-1.8c-.3-.014-.6,0-.9,0m-.034,6.877c.3,0,.6.009.9,0a.919.919,0,0,0,.917-.918.91.91,0,0,0-.9-.886c-.6-.014-1.2-.016-1.8,0a.89.89,0,0,0-.886.893.9.9,0,0,0,.869.91c.3.015.6,0,.9,0m.016,5.067h0c.316,0,.633.015.947,0a.9.9,0,0,0-.016-1.8q-.924-.029-1.85,0a.889.889,0,0,0-.869.908.9.9,0,0,0,.886.9c.3.013.6,0,.9,0" fill="#fff"/><path d="M12.488,9.519a3.08,3.08,0,0,1-1.86,5.5q-1.311.009-2.623,0a.921.921,0,0,1-1.018-1.005q-.013-3.89,0-7.779a.922.922,0,0,1,1.035-.987c.694,0,1.387,0,2.081,0a2.723,2.723,0,0,1,2.47,4.113c-.027.051-.055.1-.086.158M8.827,10.7v2.507c.6,0,1.169.01,1.739,0a1.269,1.269,0,0,0,1.286-1.19,1.233,1.233,0,0,0-1.162-1.3c-.609-.046-1.225-.009-1.863-.009M8.821,8.875c.5,0,.972.014,1.447,0a.9.9,0,0,0,.082-1.8c-.5-.04-1.01-.009-1.529-.009Z" fill="#09090a"/><path d="M22.047,20.088q-4.049,0-8.1,0c-.639,0-1.018-.332-1.028-.883a.881.881,0,0,1,.805-.921A2.465,2.465,0,0,1,14,18.278H30.1c.809,0,1.288.576,1.018,1.234a.937.937,0,0,1-.976.579c-2.7-.008-5.4,0-8.1,0" fill="#050607"/><path d="M21.628,13.208c.632,0,1.217,0,1.8,0a.922.922,0,0,1,.994.884.939.939,0,0,1-1.008.925c-.874.007-1.748.009-2.622,0a.911.911,0,0,1-.975-.995q-.008-3.888,0-7.776a.908.908,0,1,1,1.808-.007c0,2.3,0,4.609,0,6.969" fill="#060707"/><path d="M28.408,13.207c.617,0,1.2,0,1.784,0a.909.909,0,1,1,0,1.809q-1.311.01-2.621,0a.9.9,0,0,1-.975-.987q-.006-3.887,0-7.772a.9.9,0,0,1,.9-1.009.929.929,0,0,1,.905,1.023c0,2.169,0,4.338,0,6.507Z" fill="#080808"/><path d="M17.647,10.134c0,1.282,0,2.564,0,3.845,0,.65-.367,1.055-.925,1.041a.923.923,0,0,1-.885-1.04q0-3.844,0-7.691a.92.92,0,0,1,.929-1.04c.539.013.879.409.881,1.04,0,1.281,0,2.563,0,3.845" fill="#060707"/><path d="M16.433,25.155c-.843,0-1.686,0-2.528,0a.907.907,0,1,1,0-1.807q2.552-.008,5.1,0a.907.907,0,1,1,0,1.807c-.857.005-1.715,0-2.573,0" fill="#070708"/><path d="M16.455,30.222c-.843,0-1.686,0-2.528,0a.909.909,0,1,1,0-1.808q2.527,0,5.056,0a.91.91,0,1,1,0,1.808c-.842,0-1.685,0-2.528,0" fill="#070708"/><path d="M16.421,35.289c-.813,0-1.625,0-2.438,0-.672,0-1.056-.327-1.061-.893s.376-.915,1.037-.916q2.505,0,5.011,0A.915.915,0,0,1,20,34.372c.007.553-.4.914-1.048.916-.842,0-1.685,0-2.528,0" fill="#070708"/><path d="M8.577,20.088c-.286,0-.572.007-.857,0a.905.905,0,0,1-.934-.894.9.9,0,0,1,.913-.912q.879-.02,1.759,0a.913.913,0,0,1,.919.914.923.923,0,0,1-.943.891c-.285.009-.571,0-.857,0" fill="#0a0a0b"/><path d="M8.592,23.345c.3,0,.6-.011.9,0a.9.9,0,0,1-.006,1.8c-.6.017-1.2.016-1.8,0a.9.9,0,0,1,.007-1.8c.3-.012.6,0,.9,0" fill="#0a0a0b"/><path d="M8.559,30.221c-.3,0-.6.013-.9,0a.9.9,0,0,1,.017-1.8c.6-.016,1.2-.015,1.8,0a.9.9,0,1,1-.017,1.8c-.3.011-.6,0-.9,0" fill="#0a0a0b"/><path d="M8.575,35.289c-.3,0-.6.011-.9,0a.9.9,0,0,1-.886-.9.889.889,0,0,1,.869-.908q.925-.027,1.85,0a.9.9,0,0,1,.016,1.8c-.314.019-.631,0-.947,0h0" fill="#0a0a0b"/><path d="M27.991,35.376V31.52a1.716,1.716,0,0,1,1.379,1.658,2.288,2.288,0,0,1-1.379,2.2" fill="#f3f2f3"/><path d="M25.808,25.76v2.849a1.336,1.336,0,0,1-.659-1.149,1.985,1.985,0,0,1,.659-1.7" fill="#fcfcfc"/><path d="M8.827,10.7c.637,0,1.253-.036,1.863.009a1.235,1.235,0,0,1,1.162,1.306,1.27,1.27,0,0,1-1.286,1.19c-.571.012-1.141,0-1.739,0Z" fill="#f9f8f9"/><path d="M8.821,8.875V7.067c.519,0,1.027-.031,1.529.009a.9.9,0,0,1-.082,1.8c-.475.018-.951,0-1.447,0" fill="#f9f8f9"/><path d="M59.8,53.358a1.027,1.027,0,0,1-1.014.544q-18.8-.012-37.6-.006c-.737,0-1-.264-1-.995V39.749c0-.805.224-1.03,1.027-1.032h.52V38.3c0-3.519.017-7.039-.007-10.559a7.912,7.912,0,0,1,1.907-5.089.766.766,0,0,1,1.238-.009,7.634,7.634,0,0,0,10.48.114c.606-.542.847-.56,1.494-.043,2.014,1.606,4,3.25,6.053,4.8a16.027,16.027,0,0,0,7.6,3.035,36.616,36.616,0,0,1,4.02.695,5.093,5.093,0,0,1,3.73,4.922c0,.836,0,1.672,0,2.544.568.027,1.192-.133,1.547.488Zm-8.648-17.24c.178-.623.387-.778,1.051-.78h4.38A3.668,3.668,0,0,0,55.5,33.513a4.977,4.977,0,0,0-2.8-1.054c-1.8-.305-3.587-.657-5.375-1.012a.462.462,0,0,0-.462.147,4.819,4.819,0,0,1-4.3,1.19,9.233,9.233,0,0,0-3.864-.155c-.642.143-1.268.355-1.952.55.1.1.11.127.13.137a17.6,17.6,0,0,0,7.849,2.02c.673.005.857.14,1.067.77-.195.668-.367.789-1.074.784a15.735,15.735,0,0,1-5.525-.946c-1.737-.66-3.445-1.41-5.121-2.215a14.172,14.172,0,0,0-6.78-1.506c-1.21.046-2.423.008-3.635.008h-.347v1.79c1.652,0,3.276-.01,4.9,0a8.741,8.741,0,0,1,3.286.6c1.4.577,2.787,1.19,4.149,1.851A22.26,22.26,0,0,0,45.87,38.716c3.377-.05,6.755-.011,10.133-.011.116,0,.255.037.342-.015.138-.081.332-.214.342-.339.04-.47.016-.946.016-1.456H52.194c-.682,0-.869-.141-1.042-.776m-29.4,16.194H58.236V40.305H21.754Zm1.515-21.636c1.341,0,2.6-.006,3.865,0,.747,0,1.5,0,2.24.057a14.149,14.149,0,0,1,5.218,1.539.66.66,0,0,0,.708-.024,9.685,9.685,0,0,1,6.544-1.19,15.243,15.243,0,0,0,1.982.236,2.426,2.426,0,0,0,1.456-.474l-4.369-2.682c-.042.054-.13.183-.233.3a4.259,4.259,0,0,1-.356.355.784.784,0,0,1-1.082.017.745.745,0,0,1-.016-1.1,7.548,7.548,0,0,1,.657-.549l-1.274-1.027c-.039.014-.053.015-.061.023-.258.252-.512.508-.773.757a.78.78,0,1,1-1.1-1.093c.217-.229.441-.451.681-.7l-1.2-.955a9.308,9.308,0,0,1-11.822.118c-.227.457-.481.887-.662,1.346-.643,1.626-.293,3.329-.4,5.043m.041,4.966v3.033h7.942c0-.777.01-1.524-.011-2.27A.416.416,0,0,0,31,36.1a8.128,8.128,0,0,0-1.867-.436c-1.929-.056-3.861-.02-5.827-.02m9.5,3.055H36.8l-3.987-1.821Z" fill="#080708"/><rect width="36.482" height="12.007" transform="translate(21.754 40.305)" fill="#ffe8c6"/><path d="M23.269,30.676c.109-1.714-.241-3.417.4-5.044.181-.458.435-.889.662-1.346a9.3,9.3,0,0,0,11.822-.118l1.2.956c-.24.245-.464.467-.681.7a.779.779,0,1,0,1.1,1.092c.261-.248.515-.5.773-.757a.356.356,0,0,1,.061-.023l1.274,1.027a7.554,7.554,0,0,0-.656.55.744.744,0,0,0,.015,1.1.783.783,0,0,0,1.082-.018,4.247,4.247,0,0,0,.356-.354c.1-.115.191-.244.233-.3l4.369,2.681a2.413,2.413,0,0,1-1.456.474,15.09,15.09,0,0,1-1.982-.235A9.684,9.684,0,0,0,35.3,32.25a.66.66,0,0,1-.708.025,14.169,14.169,0,0,0-5.218-1.54c-.744-.058-1.493-.052-2.24-.057-1.262-.008-2.524,0-3.865,0" fill="#c88561"/><path d="M51.152,36.118c.172.635.36.776,1.041.776H56.7c0,.51.024.986-.016,1.456-.011.125-.2.258-.342.339-.087.052-.227.015-.343.015-3.377,0-6.756-.039-10.133.011A22.256,22.256,0,0,1,35.647,36.47c-1.362-.661-2.75-1.274-4.15-1.851a8.736,8.736,0,0,0-3.285-.6c-1.624-.013-3.248,0-4.9,0v-1.79h.347c1.212,0,2.425.039,3.636-.008a14.168,14.168,0,0,1,6.779,1.506c1.676.805,3.384,1.555,5.122,2.215a15.731,15.731,0,0,0,5.525.946c.706.005.879-.116,1.074-.784l1.9,0c.107.6.474.89.975.764a.861.861,0,0,0,.609-.766l1.877.012" fill="#a3acbb"/><path d="M51.152,36.118l-1.877-.012c-.174-.531-.437-.775-.822-.765s-.659.276-.762.767l-1.9,0c-.21-.63-.4-.765-1.068-.77a17.6,17.6,0,0,1-7.849-2.02c-.02-.01-.032-.033-.13-.137.685-.195,1.311-.407,1.952-.55a9.237,9.237,0,0,1,3.865.155,4.816,4.816,0,0,0,4.3-1.19.463.463,0,0,1,.462-.147c1.789.355,3.578.707,5.376,1.012a4.974,4.974,0,0,1,2.8,1.054,3.66,3.66,0,0,1,1.079,1.825H52.2c-.664,0-.873.157-1.05.78" fill="#717e95"/><path d="M23.31,35.641c1.966,0,3.9-.036,5.827.02A8.233,8.233,0,0,1,31,36.1a.417.417,0,0,1,.237.307c.021.746.011,1.493.011,2.271H23.31Z" fill="#6f7c94"/><path d="M47.691,36.108c.1-.491.367-.756.762-.767s.648.234.823.764a.865.865,0,0,1-.61.767c-.5.125-.868-.167-.975-.764" fill="#09090b"/></g></g></g></g></svg>