<svg xmlns="http://www.w3.org/2000/svg" xmlns:xlink="http://www.w3.org/1999/xlink" width="108.914" height="108.914" viewBox="0 0 108.914 108.914"><defs><filter id="a" x="0" y="0" width="108.914" height="108.914" filterUnits="userSpaceOnUse"><feOffset dy="3" input="SourceAlpha"/><feGaussianBlur stdDeviation="3" result="b"/><feFlood flood-opacity="0.161"/><feComposite operator="in" in2="b"/><feComposite in="SourceGraphic"/></filter><clipPath id="c"><rect width="54.715" height="54.715" fill="none"/></clipPath></defs><g transform="translate(-799.5 -2534.157)"><g transform="translate(0 587.946)"><g transform="translate(808.5 1952.211)"><g transform="matrix(1, 0, 0, 1, -9, -6)" filter="url(#a)"><g transform="translate(9 6)" fill="#d8cabd" opacity="0.859"><path d="M 45.45676803588867 89.41407012939453 C 39.52198028564453 89.41407012939453 33.76551818847656 88.25206756591797 28.34726715087891 85.96034240722656 C 23.11311721801758 83.74648284912109 18.41204261779785 80.57682800292969 14.37464332580566 76.5394287109375 C 10.33724308013916 72.50202941894531 7.167593002319336 67.80095672607422 4.953730583190918 62.56679534912109 C 2.662005424499512 57.14855575561523 1.500005483627319 51.39208221435547 1.500005483627319 45.45729446411133 C 1.500005483627319 39.52198028564453 2.662005424499512 33.76551818847656 4.953730583190918 28.34726905822754 C 7.167593002319336 23.11310577392578 10.33724308013916 18.41203117370605 14.37464332580566 14.37464332580566 C 18.41204261779785 10.33724403381348 23.11311721801758 7.167593955993652 28.34726715087891 4.953731060028076 C 33.76551818847656 2.662006139755249 39.52198028564453 1.500006198883057 45.45676803588867 1.500006198883057 C 51.39155578613281 1.500006198883057 57.14802932739258 2.662006139755249 62.56626892089844 4.953731060028076 C 67.80043029785156 7.167593955993652 72.50150299072266 10.33724403381348 76.53890228271484 14.37464332580566 C 80.57630920410156 18.41203117370605 83.74595642089844 23.11310577392578 85.95981597900391 28.34726905822754 C 88.25154113769531 33.76551818847656 89.41354370117188 39.52198028564453 89.41354370117188 45.45676803588867 C 89.41354370117188 51.39208221435547 88.25154113769531 57.14855575561523 85.95981597900391 62.56679534912109 C 83.74595642089844 67.80095672607422 80.57630920410156 72.50202941894531 76.53890228271484 76.5394287109375 C 72.50150299072266 80.57682800292969 67.80043029785156 83.74648284912109 62.56626892089844 85.96034240722656 C 57.14802932739258 88.25206756591797 51.39155578613281 89.41407012939453 45.45676803588867 89.41407012939453 Z" stroke="none"/><path d="M 45.45676803588867 3 C 39.72381210327148 3 34.1639404296875 4.12213134765625 28.93159484863281 6.335227966308594 C 23.87622833251953 8.473472595214844 19.33542633056641 11.53517150878906 15.43529510498047 15.435302734375 C 11.53517150878906 19.33543395996094 8.473464965820312 23.87622833251953 6.335227966308594 28.93160247802734 C 4.122123718261719 34.16394424438477 3 39.72381591796875 3 45.4572868347168 C 3 51.19024658203125 4.122123718261719 56.75011825561523 6.335227966308594 61.98246002197266 C 8.473464965820312 67.03782653808594 11.53517150878906 71.57862854003906 15.43529510498047 75.478759765625 C 19.33542633056641 79.37889099121094 23.87622833251953 82.44058990478516 28.93159484863281 84.57883453369141 C 34.1639404296875 86.79193115234375 39.72381210327148 87.9140625 45.45676803588867 87.9140625 C 51.18972396850586 87.9140625 56.74959564208984 86.79193115234375 61.98194122314453 84.57883453369141 C 67.03730773925781 82.44058990478516 71.57810974121094 79.37889099121094 75.47824096679688 75.478759765625 C 79.37837219238281 71.57862854003906 82.44007110595703 67.03782653808594 84.57830810546875 61.98246002197266 C 86.79141235351562 56.75011825561523 87.91353607177734 51.19024658203125 87.91353607177734 45.4567756652832 C 87.91353607177734 39.72381591796875 86.79141235351562 34.16394424438477 84.57830810546875 28.93160247802734 C 82.44007110595703 23.87622833251953 79.37837219238281 19.33543395996094 75.47824096679688 15.435302734375 C 71.57810974121094 11.53517150878906 67.03730773925781 8.473472595214844 61.98194122314453 6.335227966308594 C 56.74959564208984 4.12213134765625 51.18972396850586 3 45.45676803588867 3 M 45.45676803588867 0 C 70.56185150146484 0 90.91353607177734 20.35169219970703 90.91353607177734 45.4567756652832 L 90.91353607177734 45.4572868347168 C 90.91353607177734 70.5623779296875 70.56185150146484 90.9140625 45.45676803588867 90.9140625 C 20.3516845703125 90.9140625 0 70.5623779296875 0 45.4572868347168 L 0 45.4567756652832 C 0 20.35169219970703 20.3516845703125 0 45.45676803588867 0 Z" stroke="none" fill="#fff"/></g></g><g transform="translate(0 0)" fill="none"><path d="M45.457,0A45.457,45.457,0,0,1,90.914,45.457h0A45.457,45.457,0,0,1,0,45.457H0A45.457,45.457,0,0,1,45.457,0Z" stroke="none"/><path d="M 45.45676803588867 3 C 39.72381210327148 3 34.1639404296875 4.12213134765625 28.93159484863281 6.335227966308594 C 23.87622833251953 8.473472595214844 19.33542633056641 11.53517150878906 15.43529510498047 15.435302734375 C 11.53517150878906 19.33543395996094 8.473464965820312 23.87622833251953 6.335227966308594 28.93160247802734 C 4.122123718261719 34.16394424438477 3 39.72381591796875 3 45.4572868347168 C 3 51.19024658203125 4.122123718261719 56.75011825561523 6.335227966308594 61.98246002197266 C 8.473464965820312 67.03782653808594 11.53517150878906 71.57862854003906 15.43529510498047 75.478759765625 C 19.33542633056641 79.37889099121094 23.87622833251953 82.44058990478516 28.93159484863281 84.57883453369141 C 34.1639404296875 86.79193115234375 39.72381210327148 87.9140625 45.45676803588867 87.9140625 C 51.18972396850586 87.9140625 56.74959564208984 86.79193115234375 61.98194122314453 84.57883453369141 C 67.03730773925781 82.44058990478516 71.57810974121094 79.37889099121094 75.47824096679688 75.478759765625 C 79.37837219238281 71.57862854003906 82.44007110595703 67.03782653808594 84.57830810546875 61.98246002197266 C 86.79141235351562 56.75011825561523 87.91353607177734 51.19024658203125 87.91353607177734 45.4567756652832 C 87.91353607177734 39.72381591796875 86.79141235351562 34.16394424438477 84.57830810546875 28.93160247802734 C 82.44007110595703 23.87622833251953 79.37837219238281 19.33543395996094 75.47824096679688 15.435302734375 C 71.57810974121094 11.53517150878906 67.03730773925781 8.473472595214844 61.98194122314453 6.335227966308594 C 56.74959564208984 4.12213134765625 51.18972396850586 3 45.45676803588867 3 M 45.45676803588867 0 C 70.56185150146484 0 90.91353607177734 20.35169219970703 90.91353607177734 45.4567756652832 L 90.91353607177734 45.4572868347168 C 90.91353607177734 70.5623779296875 70.56185150146484 90.9140625 45.45676803588867 90.9140625 C 20.3516845703125 90.9140625 0 70.5623779296875 0 45.4572868347168 L 0 45.4567756652832 C 0 20.35169219970703 20.3516845703125 0 45.45676803588867 0 Z" stroke="none" fill="#fff"/></g></g></g><g transform="translate(836.363 2557.844)"><g transform="translate(-9.764 0.413)"><g clip-path="url(#c)"><path d="M44.3,10.666l-.842.482a.983.983,0,0,0-1.336-.1A7.729,7.729,0,0,1,34.37,11a.8.8,0,0,1-.383-.534c-.169-2.587-.306-5.177-.453-7.766A2.57,2.57,0,0,0,31.6.2a2.518,2.518,0,0,0-2.817,1.215c-.877,1.353-1.738,2.716-2.616,4.067a2.5,2.5,0,0,1-.514.6c-3.76,3-7.539,5.979-11.281,9a5.539,5.539,0,0,1-2.4,1.153c-.76.16-1.516.347-2.265.553a3.271,3.271,0,0,0-2.507,2.665c-.125.606-.257,1.211-.381,1.818-.48,2.34-1.1,4.667-.633,7.133-.654,0-1.274-.008-1.893,0A1.725,1.725,0,0,0,2.515,30.18c-.006,1.386,0,2.772,0,4.159a1.5,1.5,0,0,0,.645,1.332.8.8,0,0,1,.353.8c-.006,5.172.017,10.344-.019,15.515a2.611,2.611,0,0,0,1.476,2.756" transform="translate(-0.594 -0.026)" fill="#fff"/><path d="M45.189,10.028c-.209-.652-.134-.871.434-1.249.325-.216.645-.439.978-.641A2.217,2.217,0,0,1,50,9.44a28.627,28.627,0,0,1,1.269,8.315,24.405,24.405,0,0,1-1.372,6.627,9.182,9.182,0,0,0-.285,2.188c-.044.6-.008,1.2-.008,1.834.538,0,1.194,0,1.85,0a1.735,1.735,0,0,1,1.83,1.836c0,1.368,0,2.736,0,4.1a1.567,1.567,0,0,1-.687,1.368.662.662,0,0,0-.309.656q.008,4.5,0,9.008c0,2.2-.037,4.407.015,6.609a2.586,2.586,0,0,1-1.476,2.755H36.964l-.537-.85c.165-.59.561-.764,1.157-.761,3.134.015,6.269,0,9.4-.008.941.005,1.882.014,2.823.017.814,0,.835-.02.835-.841V36.092H46.988c-.089-.007-.177-.018-.265-.018q-15.966,0-31.932,0c-.134,0-.267.025-.417.04,0,.571-.031,1.106.016,1.633a.837.837,0,0,0,.333.562c.718.454,1.465.861,2.2,1.286a1.629,1.629,0,0,1,.887,1.475c.008,2.026.023,4.052-.005,6.077a1.576,1.576,0,0,1-1.712,1.63q-2.505.011-5.011,0a1.625,1.625,0,0,1-1.74-1.722c-.006-1.955,0-3.909,0-5.864a1.683,1.683,0,0,1,.942-1.6c.716-.386,1.436-.77,2.141-1.178a.651.651,0,0,0,.326-.4c.035-.632.015-1.268.015-1.91H5.149v.5q0,7.863,0,15.726c0,.779.029.807.816.807q13.648,0,27.294-.007c.575,0,.965.168,1.091.762l-.482.845H4.966a2.612,2.612,0,0,1-1.477-2.756c.037-5.171.014-10.342.02-15.514a.8.8,0,0,0-.353-.8,1.5,1.5,0,0,1-.645-1.332c0-1.386,0-2.773,0-4.159A1.725,1.725,0,0,1,4.3,28.405c.619-.009,1.239,0,1.893,0-.469-2.467.153-4.794.633-7.133.124-.606.256-1.211.38-1.818a3.275,3.275,0,0,1,2.508-2.665q1.124-.309,2.265-.553a5.532,5.532,0,0,0,2.395-1.153c3.742-3.023,7.522-6,11.282-9a2.506,2.506,0,0,0,.514-.6c.878-1.352,1.74-2.715,2.616-4.068A2.519,2.519,0,0,1,31.6.2a2.57,2.57,0,0,1,1.933,2.5c.147,2.589.284,5.178.453,7.766A.8.8,0,0,0,34.37,11a7.728,7.728,0,0,0,7.755.044.983.983,0,0,1,1.336.1c.212.7.128.955-.519,1.3a9.316,9.316,0,0,1-9.83-.323c-.792-.491-1.532-1.066-2.322-1.621L25.4,16.238h.619q2.959,0,5.918,0a4.121,4.121,0,0,1,4.066,2.611c.753,1.676,1.491,3.36,2.252,5.032.073.161.269.377.409.379,1.776.015,3.552,0,5.328-.016,1.314.01,2.628.026,3.941.019a.443.443,0,0,0,.331-.231,20.558,20.558,0,0,0,1.391-6.4,29.293,29.293,0,0,0-1.186-7.688.639.639,0,0,0-1.027-.422c-.307.176-.594.386-.891.58-.614.4-.8.388-1.368-.072m-1.507,15.9c-.247-.011-.494-.032-.741-.032q-13.629,0-27.259,0c-.838,0-.989-.1-1.23-.8.239-.7.4-.817,1.22-.818h21c-.736-1.65-1.441-3.226-2.144-4.8a2.571,2.571,0,0,0-2.554-1.636c-2.5.005-5.01.009-7.515-.006a1.475,1.475,0,0,0-1.01.347,4.775,4.775,0,0,1-3.7,1.167,1.752,1.752,0,0,0-2.031.958,3.282,3.282,0,0,1-3.1,1.585c-1.936-.031-3.873-.014-5.81,0-.171,0-.464.115-.492.228-.176.693-.292,1.4-.438,2.158,1.192,0,2.326-.007,3.46,0,.7.005.925.215,1.01.885-.1.607-.528.735-1.055.732-1.184,0-2.368,0-3.6,0,0,.445,0,.832,0,1.217,0,1.1.194,1.3,1.3,1.3H42.884c.195,0,.389-.014.584-.021,1.225.006,2.451.018,3.676.015a.725.725,0,0,0,.787-.651c.06-.608.016-1.226.016-1.823Zm3.107,4.114c-.106-.007-.212-.021-.318-.021q-20.912,0-41.826,0c-.168,0-.336.024-.486.036v4.318l.008.044.044,0c.211.015.422.04.632.04q20.676,0,41.354,0c.195,0,.389-.011.585-.017h4.9c0-1.405-.005-2.735,0-4.065,0-.28-.1-.373-.373-.37-1.508.015-3.016.02-4.523.028m-24.138-19.5c.594.435,1.171.848,1.736,1.275a.824.824,0,0,1,.3,1.192c-.3.418-.751.457-1.259.092-.691-.5-1.375-1-2.083-1.517l-1.731,1.381c.735.539,1.43,1.032,2.105,1.549a.778.778,0,0,1,.193,1.087.8.8,0,0,1-1.081.228,3.567,3.567,0,0,1-.351-.24l-2.183-1.585L15.345,16.36c1.137.414,2.172.815,3.223,1.168a4.026,4.026,0,0,0,4.395-1.045c.366-.363.709-.749,1.062-1.125l5.458-5.808-2.928-2.11-1.184.95c.517.38.992.722,1.461,1.073.535.4.647.847.327,1.262-.294.383-.775.4-1.274.038-.614-.444-1.225-.89-1.835-1.334l-1.4,1.116M12.764,40.077c-.542.293-1.036.525-1.486.821a.8.8,0,0,0-.322.567c-.026,1.652-.015,3.3-.015,4.956v.726H16.2c0-1.977,0-3.928-.006-5.877a.419.419,0,0,0-.141-.312c-.533-.329-1.08-.635-1.688-.987,0,.521,0,.943,0,1.366-.008.569-.324.933-.793.925s-.787-.359-.8-.937c-.011-.386,0-.774,0-1.248m19.523-30.5c-.045-.781-.082-1.445-.122-2.108-.095-1.591-.2-3.182-.283-4.774a.89.89,0,0,0-.719-.926.917.917,0,0,0-1.013.515q-1.087,1.7-2.182,3.4c-.111.174-.212.355-.328.55l4.646,3.344m-15.319,9.09c-1.051-.387-2.005-.75-2.97-1.084a1.247,1.247,0,0,0-.664-.043c-1.029.244-2.051.514-3.073.785a1.8,1.8,0,0,0-1.528,1.95c2.128,0,4.254.02,6.38-.021a1.682,1.682,0,0,0,.965-.467,8.382,8.382,0,0,0,.89-1.12" transform="translate(-0.594 -0.026)" fill="#090c0c"/><path d="M43.575,71.384l.481-.845,2.075,0,.537.85Z" transform="translate(-10.298 -16.669)" fill="#fcfdfd"/><path d="M51.082,27.457c-1.776.011-3.553.031-5.328.016-.141,0-.336-.218-.409-.379-.762-1.672-1.5-3.356-2.252-5.032a4.121,4.121,0,0,0-4.066-2.612c-1.973,0-3.946,0-5.918,0H32.49l5.387-5.737c.79.554,1.529,1.129,2.322,1.62a9.314,9.314,0,0,0,9.83.323c.647-.341.731-.6.519-1.3l.842-.482c.293,1.444.668,2.878.861,4.335a16.365,16.365,0,0,1-.457,6.757c-.239.827-.474,1.656-.711,2.484" transform="translate(-7.678 -3.241)" fill="#68b9a7"/><path d="M56.836,27.115c.237-.828.472-1.657.711-2.484A16.365,16.365,0,0,0,58,17.874c-.192-1.458-.567-2.891-.861-4.335l.884-.638c.566.46.755.47,1.368.072.3-.193.584-.4.891-.579a.639.639,0,0,1,1.027.422A29.324,29.324,0,0,1,62.5,20.5a20.566,20.566,0,0,1-1.391,6.4.446.446,0,0,1-.331.231c-1.314.007-2.628-.009-3.941-.019" transform="translate(-13.432 -2.899)" fill="#46ac96"/><path d="M37.243,65.02l-2.075.005c-.127-.594-.515-.763-1.091-.763q-13.648.015-27.294.007c-.787,0-.816-.027-.816-.807q0-7.864,0-15.726v-.5H13.58c0,.643.02,1.278-.015,1.91a.652.652,0,0,1-.326.4c-.7.407-1.423.79-2.141,1.177a1.686,1.686,0,0,0-.942,1.6c0,1.954,0,3.909,0,5.863A1.625,1.625,0,0,0,11.9,59.91q2.505.01,5.011,0a1.577,1.577,0,0,0,1.712-1.631c.028-2.025.013-4.051.005-6.077a1.629,1.629,0,0,0-.887-1.476c-.736-.425-1.484-.832-2.2-1.286a.837.837,0,0,1-.333-.562c-.047-.528-.016-1.062-.016-1.633.15-.015.283-.04.417-.04q15.966,0,31.932,0c.089,0,.176.011.265.018q0,8.515,0,17.031c-3.135.006-6.27.023-9.4.008-.595,0-.992.17-1.157.761" transform="translate(-1.41 -11.155)" fill="#d7e7ee"/><path d="M47.293,43.706c-.195.005-.39.016-.585.016q-20.676,0-41.354,0c-.211,0-.422-.027-.632-.04a.052.052,0,0,0-.053-.048V39.315c.15-.011.318-.036.486-.036q20.912,0,41.825,0c.106,0,.212.013.318.021a1.916,1.916,0,0,1,.091.4q.01,1.774,0,3.548a2.258,2.258,0,0,1-.1.456" transform="translate(-1.103 -9.282)" fill="#ffd860"/><path d="M14.013,30.647c-.086-.671-.312-.88-1.01-.885-1.135-.009-2.269,0-3.46,0,.146-.757.261-1.465.436-2.158.029-.114.322-.227.493-.228,1.936-.016,3.873-.033,5.809,0a3.282,3.282,0,0,0,3.1-1.585,1.753,1.753,0,0,1,2.032-.958,4.775,4.775,0,0,0,3.7-1.167,1.474,1.474,0,0,1,1.01-.347c2.506.015,5.01.011,7.516.006a2.571,2.571,0,0,1,2.553,1.636c.7,1.577,1.407,3.153,2.143,4.8h-21c-.817,0-.98.113-1.22.818l-2.1.069" transform="translate(-2.255 -5.51)" fill="#68b9a7"/><path d="M13.955,32.894l2.1-.069c.241.7.393.8,1.23.8q13.629,0,27.259,0c.247,0,.493.021.742.033q-.109,1.229-.215,2.458c-.195.007-.39.021-.585.021H10.6c-1.111,0-1.3-.192-1.3-1.3,0-.386,0-.773,0-1.218,1.233,0,2.417,0,3.6,0,.528,0,.956-.125,1.055-.732" transform="translate(-2.197 -7.757)" fill="#d7e7ee"/><path d="M60.751,64.257q0-8.516,0-17.031h3.657v.541q0,7.833,0,15.665c0,.821-.021.844-.835.842-.941,0-1.882-.011-2.823-.018" transform="translate(-14.357 -11.161)" fill="#c0dee2"/><path d="M26.622,12.812l1.4-1.116c.609.444,1.221.89,1.835,1.334.5.36.979.345,1.274-.038.32-.415.208-.861-.328-1.262-.468-.351-.943-.693-1.461-1.073l1.184-.95,2.928,2.11L28,17.626c-.353.376-.7.762-1.062,1.125A4.028,4.028,0,0,1,22.539,19.8c-1.052-.354-2.087-.755-3.223-1.168l2.948-2.353,2.183,1.585a3.567,3.567,0,0,0,.351.24.8.8,0,0,0,1.081-.228.778.778,0,0,0-.193-1.087c-.676-.517-1.37-1.01-2.105-1.549l1.731-1.381c.707.516,1.391,1.021,2.083,1.517.509.365.956.327,1.259-.092a.824.824,0,0,0-.3-1.192c-.565-.428-1.142-.84-1.736-1.275" transform="translate(-4.565 -2.294)" fill="#d4e4eb"/><path d="M15.372,52.412c0,.475-.009.861,0,1.248.017.578.325.929.8.938s.785-.357.793-.926c.006-.423,0-.845,0-1.366.608.352,1.155.658,1.688.987a.419.419,0,0,1,.141.312c.008,1.95.006,3.9.006,5.877H13.55v-.725c0-1.653-.011-3.305.015-4.957a.8.8,0,0,1,.322-.566c.451-.3.944-.528,1.486-.822" transform="translate(-3.202 -12.361)" fill="#67b9a7"/><path d="M60.483,43.7a2.258,2.258,0,0,0,.1-.456q.013-1.774,0-3.548a1.916,1.916,0,0,0-.091-.4c1.507-.008,3.015-.014,4.523-.029.271,0,.375.09.373.371-.011,1.33-.005,2.66-.005,4.065Z" transform="translate(-14.294 -9.28)" fill="#efb767"/><path d="M40.064,10.079,35.418,6.735c.116-.195.218-.376.329-.55.726-1.133,1.457-2.264,2.182-3.4a.917.917,0,0,1,1.012-.516.89.89,0,0,1,.719.926c.086,1.592.188,3.183.283,4.774.039.664.076,1.327.121,2.108" transform="translate(-8.37 -0.531)" fill="#537a84"/><path d="M18.893,24.049a8.382,8.382,0,0,1-.89,1.12,1.682,1.682,0,0,1-.965.467c-2.125.041-4.252.021-6.38.021a1.8,1.8,0,0,1,1.528-1.95c1.022-.271,2.044-.541,3.073-.785a1.247,1.247,0,0,1,.664.043c.965.334,1.919.7,2.97,1.084" transform="translate(-2.519 -5.411)" fill="#65b6a4"/><path d="M56.143,36.376q.107-1.229.214-2.458h4.265c0,.6.044,1.214-.015,1.823a.725.725,0,0,1-.787.65c-1.226,0-2.451-.009-3.676-.015" transform="translate(-13.268 -8.016)" fill="#c0dde2"/><path d="M4.669,44.98a.054.054,0,0,1,.053.048l-.044,0Z" transform="translate(-1.103 -10.63)" fill="#efb767"/></g></g></g></g></svg>