<svg xmlns="http://www.w3.org/2000/svg" xmlns:xlink="http://www.w3.org/1999/xlink" width="521" height="395" viewBox="0 0 521 395">
  <defs>
    <clipPath id="clip-path">
      <rect id="Rectangle_405108" data-name="Rectangle 405108" width="364.581" height="364.581" fill="none"/>
    </clipPath>
  </defs>
  <g id="Group_1177603" data-name="Group 1177603" transform="translate(9559 2434)">
    <rect id="Rectangle_405103" data-name="Rectangle 405103" width="521" height="395" transform="translate(-9559 -2434)" fill="#fff"/>
    <g id="Group_1177595" data-name="Group 1177595" transform="translate(-9467.916 -2421.407)">
      <g id="Group_1177607" data-name="Group 1177607" transform="translate(-13.084 2.408)">
        <g id="Group_1177606" data-name="Group 1177606" transform="translate(0 -0.001)" clip-path="url(#clip-path)">
          <path id="Path_1033925" data-name="Path 1033925" d="M0,182.29A182.291,182.291,0,1,0,182.29,0,182.29,182.29,0,0,0,0,182.29" transform="translate(0 0.001)" fill="#e3e3e2"/>
          <path id="Path_1033926" data-name="Path 1033926" d="M340.83,113.91c.431,2,1.526,4.177,3.841,4.291a5.273,5.273,0,0,0,1.68-.205c4.767-1.193,9.657-1.82,14.4-3.119a13.181,13.181,0,0,0,5.889-2.935,12.548,12.548,0,0,0,3.052-5.184,40.85,40.85,0,0,0,1.347-6.167,34.9,34.9,0,0,0,.6-6.91,13.018,13.018,0,0,0-1.6-6.061,11.848,11.848,0,0,0-3.5-3.775,14.808,14.808,0,0,0-10.126-2.43,15.765,15.765,0,0,0-9.742,5.464,21.663,21.663,0,0,0-4.944,10.687c-.444,2.66-.8,5.352-1.043,8.038a28.078,28.078,0,0,0,.156,8.3" transform="translate(-118.036 -28.189)" fill="#d9513f"/>
          <path id="Path_1033927" data-name="Path 1033927" d="M393.8,113.6a.407.407,0,0,0,.031.146c0,.016,0,.031,0,.048.052,1.162.06,2.326.128,3.487a10.355,10.355,0,0,0,.434,2.643,6.621,6.621,0,0,0,3.75,3.926,10.341,10.341,0,0,0,6.372.533,6.109,6.109,0,0,0,2.771-1.494,9.928,9.928,0,0,0,2.068-3.1c.6-1.293,1.135-2.626,1.645-3.956a28.05,28.05,0,0,0,1.359-4.456,13.053,13.053,0,0,0-.525-7.574,8.163,8.163,0,0,0-4.793-4.7,9.819,9.819,0,0,0-11.731,4.806,17.712,17.712,0,0,0-1.492,7.676c-.015.672-.016,1.344-.013,2.016" transform="translate(-136.536 -34.192)" fill="#d9513f"/>
          <path id="Path_1033928" data-name="Path 1033928" d="M421.657,140c3.2,1.759,7.7.945,9.6-2.319a11.482,11.482,0,0,0,1.167-3.144,34.246,34.246,0,0,0,.625-3.378,15.667,15.667,0,0,0-.4-6.886,8.922,8.922,0,0,0-3.485-4.667,6.417,6.417,0,0,0-5.6-.821,8.344,8.344,0,0,0-4.35,3.664,16.621,16.621,0,0,0-1.979,6.6c-.071.569-.131,1.14-.189,1.71a.549.549,0,0,0-.022.083,8.486,8.486,0,0,0,.922,5.5A9.559,9.559,0,0,0,421.657,140" transform="translate(-144.546 -41.074)" fill="#d9513f"/>
          <path id="Path_1033929" data-name="Path 1033929" d="M440.621,162.766a6.777,6.777,0,0,0,4.583.888,5.706,5.706,0,0,0,3.955-2.586,10.491,10.491,0,0,0,1.108-2.581c.3-.982.547-1.979.745-2.986a12.585,12.585,0,0,0-.061-6.01c-.952-3.168-4.068-5.958-7.543-4.974a7.46,7.46,0,0,0-4.028,3.042,14.717,14.717,0,0,0-2.019,5.519c-.085.431-.162.863-.238,1.3a.3.3,0,0,0-.016.04,7.5,7.5,0,0,0,.468,4.972,8.172,8.172,0,0,0,3.046,3.38" transform="translate(-151.475 -50.036)" fill="#d9513f"/>
          <path id="Path_1033930" data-name="Path 1033930" d="M462.6,167.647a7.589,7.589,0,0,0-2.514-4.137,4.8,4.8,0,0,0-4.483-.9,7.1,7.1,0,0,0-3.716,3.065,15.854,15.854,0,0,0-1.936,5.559c-.089.463-.169.928-.248,1.393a.871.871,0,0,0-.025.084,7.826,7.826,0,0,0,.418,4.845,7.649,7.649,0,0,0,2.734,3.276,5.8,5.8,0,0,0,4.273.832,5.488,5.488,0,0,0,3.724-2.727,11.627,11.627,0,0,0,1.031-2.616c.267-.953.5-1.917.69-2.889a13.837,13.837,0,0,0,.052-5.785" transform="translate(-155.839 -56.304)" fill="#d9513f"/>
          <path id="Path_1033931" data-name="Path 1033931" d="M314.8,231.172c-2.613-16.2-6.767-25.419-6.787-39.233s5.644-28.465,17.53-35.5c7.492-4.436,16.584-5.4,25.268-4.778,19.529,1.4,39.425,11.7,47.529,29.52,8.425,18.533,2.65,40.321-5.407,59.017s-13.691,33.865-16.985,53.956c-2.613,15.94,2.278,26.246,3.92,36.845,1.361,8.785-1.116,17.99-8.163,23.41-3.388,2.605-10.129,6.642-14.31,7.687-11.252,2.813-22.142,2.788-32.665-2.091-11.572-5.364-18.376-20.951-21.279-33.371s-1.761-25.411.071-38.033c2.731-18.807,11.278-34.168,11.278-57.426" transform="translate(-104.599 -52.522)" fill="#d9513f"/>
          <path id="Path_1033932" data-name="Path 1033932" d="M200.68,113.91c-.431,2-1.526,4.177-3.841,4.291a5.273,5.273,0,0,1-1.68-.205c-4.767-1.193-9.657-1.82-14.4-3.119a13.181,13.181,0,0,1-5.889-2.935,12.547,12.547,0,0,1-3.052-5.184,40.848,40.848,0,0,1-1.347-6.167,34.9,34.9,0,0,1-.6-6.91,13.019,13.019,0,0,1,1.6-6.061,11.848,11.848,0,0,1,3.5-3.775,14.808,14.808,0,0,1,10.126-2.43,15.765,15.765,0,0,1,9.742,5.464,21.664,21.664,0,0,1,4.944,10.687c.444,2.66.8,5.352,1.043,8.038a28.079,28.079,0,0,1-.156,8.3" transform="translate(-58.893 -28.189)" fill="#d9513f"/>
          <path id="Path_1033933" data-name="Path 1033933" d="M154.253,113.6a.406.406,0,0,1-.031.146c0,.016,0,.031,0,.048-.052,1.162-.06,2.326-.128,3.487a10.353,10.353,0,0,1-.434,2.643,6.621,6.621,0,0,1-3.75,3.926,10.341,10.341,0,0,1-6.371.533,6.109,6.109,0,0,1-2.771-1.494,9.928,9.928,0,0,1-2.068-3.1c-.6-1.293-1.135-2.626-1.645-3.956a28.05,28.05,0,0,1-1.359-4.456,13.053,13.053,0,0,1,.525-7.574,8.162,8.162,0,0,1,4.793-4.7,9.819,9.819,0,0,1,11.731,4.806,17.712,17.712,0,0,1,1.492,7.676c.015.672.016,1.344.013,2.016" transform="translate(-46.938 -34.192)" fill="#d9513f"/>
          <path id="Path_1033934" data-name="Path 1033934" d="M127.744,140c-3.2,1.759-7.7.945-9.6-2.319a11.482,11.482,0,0,1-1.167-3.144,34.26,34.26,0,0,1-.625-3.378,15.668,15.668,0,0,1,.4-6.886,8.922,8.922,0,0,1,3.485-4.667,6.417,6.417,0,0,1,5.6-.821,8.344,8.344,0,0,1,4.35,3.664,16.62,16.62,0,0,1,1.979,6.6c.071.569.131,1.14.189,1.71a.553.553,0,0,1,.022.083,8.486,8.486,0,0,1-.922,5.5A9.559,9.559,0,0,1,127.744,140" transform="translate(-40.274 -41.074)" fill="#d9513f"/>
          <path id="Path_1033935" data-name="Path 1033935" d="M109.777,162.766a6.777,6.777,0,0,1-4.583.888,5.706,5.706,0,0,1-3.955-2.586,10.49,10.49,0,0,1-1.108-2.581c-.3-.982-.546-1.979-.745-2.986a12.576,12.576,0,0,1,.062-6.01c.951-3.168,4.067-5.958,7.542-4.974a7.458,7.458,0,0,1,4.028,3.042,14.718,14.718,0,0,1,2.019,5.519c.086.431.162.863.238,1.3a.425.425,0,0,1,.015.04,7.5,7.5,0,0,1-.467,4.972,8.178,8.178,0,0,1-3.046,3.38" transform="translate(-34.343 -50.036)" fill="#d9513f"/>
          <path id="Path_1033936" data-name="Path 1033936" d="M88.356,167.647a7.59,7.59,0,0,1,2.515-4.137,4.8,4.8,0,0,1,4.483-.9,7.1,7.1,0,0,1,3.716,3.065,15.855,15.855,0,0,1,1.936,5.559c.089.463.169.928.248,1.393.009.027.018.055.025.084a7.826,7.826,0,0,1-.418,4.845,7.649,7.649,0,0,1-2.734,3.276,5.8,5.8,0,0,1-4.273.832,5.488,5.488,0,0,1-3.724-2.727,11.627,11.627,0,0,1-1.031-2.616c-.267-.953-.5-1.917-.69-2.889a13.837,13.837,0,0,1-.052-5.785" transform="translate(-30.536 -56.304)" fill="#d9513f"/>
          <path id="Path_1033937" data-name="Path 1033937" d="M189.775,231.172c2.613-16.2,6.767-25.419,6.787-39.233s-5.644-28.465-17.53-35.5c-7.492-4.436-16.584-5.4-25.268-4.778-19.529,1.4-39.425,11.7-47.528,29.52-8.425,18.533-2.65,40.321,5.407,59.017s13.691,33.865,16.985,53.956c2.613,15.94-2.278,26.246-3.92,36.845-1.361,8.785,1.116,17.99,8.163,23.41,3.388,2.605,10.129,6.642,14.31,7.687,11.252,2.813,22.142,2.788,32.665-2.091,11.571-5.364,18.376-20.951,21.279-33.371s1.761-25.411-.071-38.033c-2.731-18.807-11.278-34.168-11.278-57.426" transform="translate(-35.398 -52.522)" fill="#d9513f"/>
        </g>
      </g>
    </g>
  </g>
</svg>
