<svg xmlns="http://www.w3.org/2000/svg" xmlns:xlink="http://www.w3.org/1999/xlink" width="98" height="98" viewBox="0 0 98 98"><defs><filter id="a" x="0" y="0" width="98" height="98" filterUnits="userSpaceOnUse"><feOffset dy="3" input="SourceAlpha"/><feGaussianBlur stdDeviation="3" result="b"/><feFlood flood-opacity="0.161"/><feComposite operator="in" in2="b"/><feComposite in="SourceGraphic"/></filter></defs><g transform="translate(-276 -6091.407)"><g transform="translate(-734.73 3020.407)"><g transform="matrix(1, 0, 0, 1, 1010.73, 3071)" filter="url(#a)"><g transform="translate(9 6)" fill="#ffd63c"><path d="M 39.99997329711914 78.50040435791016 C 34.80184936523438 78.50040435791016 29.76000595092773 77.48268127441406 25.01450729370117 75.47550201416016 C 20.43013954162598 73.53648376464844 16.3126392364502 70.76027679443359 12.7763843536377 67.22402191162109 C 9.240128517150879 63.68776702880859 6.463928699493408 59.57027053833008 4.524906635284424 54.98590087890625 C 2.517728805541992 50.24040222167969 1.500006675720215 45.19855880737305 1.500006675720215 40.00043487548828 C 1.500006675720215 34.80185699462891 2.517728805541992 29.76001358032227 4.524906635284424 25.01451301574707 C 6.463928699493408 20.43013572692871 9.240128517150879 16.31263542175293 12.7763843536377 12.77637958526611 C 16.3126392364502 9.240124702453613 20.43013954162598 6.463935375213623 25.01450729370117 4.52490234375 C 29.76000595092773 2.517724514007568 34.80184936523438 1.500002145767212 39.99997329711914 1.500002145767212 C 45.19809722900391 1.500002145767212 50.23994064331055 2.517724514007568 54.98543930053711 4.52490234375 C 59.56981658935547 6.463935375213623 63.68731689453125 9.240124702453613 67.22357177734375 12.77637958526611 C 70.75982666015625 16.31263542175293 73.53601837158203 20.43013572692871 75.47505187988281 25.01451301574707 C 77.48223114013672 29.76001358032227 78.49995422363281 34.80185699462891 78.49995422363281 39.99998092651367 C 78.49995422363281 45.19855880737305 77.48223114013672 50.24040222167969 75.47505187988281 54.98590087890625 C 73.53601837158203 59.57027053833008 70.75982666015625 63.68776702880859 67.22357177734375 67.22402191162109 C 63.68731689453125 70.76027679443359 59.56981658935547 73.53648376464844 54.98543930053711 75.47550201416016 C 50.23994064331055 77.48268127441406 45.19809722900391 78.50040435791016 39.99997329711914 78.50040435791016 Z" stroke="none"/><path d="M 39.99997329711914 3 C 35.00369262695312 3 30.15843963623047 3.977851867675781 25.59883880615234 5.906417846679688 C 21.19326782226562 7.769813537597656 17.23602676391602 10.43805694580078 13.83704376220703 13.83704376220703 C 10.43805694580078 17.23601531982422 7.769813537597656 21.19325637817383 5.906410217285156 25.59882736206055 C 3.977851867675781 30.15844345092773 3 35.00368118286133 3 40.00042724609375 C 3 44.99672317504883 3.977851867675781 49.84196472167969 5.906410217285156 54.40157318115234 C 7.769813537597656 58.80714797973633 10.43805694580078 62.76438903808594 13.83704376220703 66.16336059570312 C 17.23602676391602 69.56234741210938 21.19326782226562 72.2305908203125 25.59883880615234 74.09398651123047 C 30.15843963623047 76.02255249023438 35.00369262695312 77.00040435791016 39.99997329711914 77.00040435791016 C 44.99625396728516 77.00040435791016 49.84150695800781 76.02255249023438 54.40110778808594 74.09398651123047 C 58.80667877197266 72.2305908203125 62.76391983032227 69.56234741210938 66.16290283203125 66.16336059570312 C 69.5618896484375 62.76438903808594 72.23013305664062 58.80714797973633 74.09353637695312 54.40157318115234 C 76.0220947265625 49.84196472167969 76.99994659423828 44.99672317504883 76.99994659423828 39.99997711181641 C 76.99994659423828 35.00368118286133 76.0220947265625 30.15844345092773 74.09353637695312 25.59882736206055 C 72.23013305664062 21.19325637817383 69.5618896484375 17.23601531982422 66.16290283203125 13.83704376220703 C 62.76391983032227 10.43805694580078 58.80667877197266 7.769813537597656 54.40110778808594 5.906417846679688 C 49.84150695800781 3.977851867675781 44.99625396728516 3 39.99997329711914 3 M 39.99997329711914 0 C 62.09134674072266 0 79.99994659423828 17.90858840942383 79.99994659423828 39.99997711181641 L 79.99994659423828 40.00042724609375 C 79.99994659423828 62.09181594848633 62.09134674072266 80.00040435791016 39.99997329711914 80.00040435791016 C 17.90859985351562 80.00040435791016 0 62.09181594848633 0 40.00042724609375 L 0 39.99997711181641 C 0 17.90858840942383 17.90859985351562 0 39.99997329711914 0 Z" stroke="none" fill="#fff"/></g></g></g><g transform="translate(303.412 6111.589)"><g transform="translate(0.833 0.833)"><g transform="translate(5.83)"><path d="M76.13,15.967c-.022.061-.046.122-.071.182a5.692,5.692,0,0,1-1.233,1.845,5.661,5.661,0,0,1-1.3-2.027h0L71.5,17.994a5.693,5.693,0,0,1-1.233-1.845c-.036-.09-.072-.179-.1-.271l-.01,0-2.817,2.112H66.5a2.5,2.5,0,0,0-2.5,2.5v-5A7.5,7.5,0,0,1,71.5,8h6.663a7.5,7.5,0,0,1,7.5,7.5v5a2.5,2.5,0,0,0-2.5-2.5h-.833l-2.817-2.112-.01,0c-.032.092-.068.181-.1.271a5.693,5.693,0,0,1-1.233,1.845l-2.027-2.027Z" transform="translate(-64 -8)" fill="#656d78"/></g><g transform="translate(19.988 12.493)"><path d="M209.161,132.621v.061a6.8,6.8,0,0,1-1.989,4.8l-.509.508a4.989,4.989,0,0,1-1.905,3.926l-1.426-.178-1.164-.146L200,141.326V139.3a.833.833,0,0,1,.4-.714l.526-.315a6.664,6.664,0,0,0,3.235-5.713V130.5H205a2.5,2.5,0,0,0,2.5-2.5l.495.742A6.975,6.975,0,0,1,209.161,132.621Z" transform="translate(-200 -128)" fill="#656d78"/></g><g transform="translate(4.164 12.493)"><path d="M57.161,139.3v2.027l-2.167.271-1.164.146-1.426.178a4.986,4.986,0,0,1-1.905-3.926l-.457-.457a6.971,6.971,0,0,1-.871-8.795l.5-.742a2.5,2.5,0,0,0,2.5,2.5H53v2.057a6.664,6.664,0,0,0,3.235,5.713l.526.315A.833.833,0,0,1,57.161,139.3Z" transform="translate(-48 -128)" fill="#656d78"/></g><g transform="translate(23.32 26.235)"><path d="M235.331,260.475v4.939h-1.666A1.665,1.665,0,0,0,232,267.079V260l1.426.178.908.113A8.909,8.909,0,0,1,235.331,260.475Z" transform="translate(-232 -260)" fill="#5cd6b3"/></g><g transform="translate(6.663 26.235)"><path d="M73.905,260.178,75.331,260v7.079H88.657v1.666a1.665,1.665,0,0,0-1.666,1.666v1.666H83.66a1.665,1.665,0,0,0-1.666,1.666v1.666h-.143a1.667,1.667,0,0,0-1.178.488l-.345.345-5.064-1.447a5.71,5.71,0,0,0-1.563-.219H72.69a5.636,5.636,0,0,0-.69.043h0V260.475a8.909,8.909,0,0,1,1-.183Z" transform="translate(-72 -260)" fill="#5cd6b3"/></g><g transform="translate(21.654 34.98)"><path d="M233.814,349.524a5.82,5.82,0,0,1,2,.472,6.658,6.658,0,0,0-3.153,5.664H217.666a1.665,1.665,0,0,0,1.666-1.666v-5a1.665,1.665,0,0,0-1.666-1.666H216v-1.666A1.665,1.665,0,0,1,217.666,344h6.663v1.058a4.159,4.159,0,0,0,1.666,3.331V349a1.665,1.665,0,0,0,1.666,1.666h3.331a1.665,1.665,0,0,0,1.6-1.207Z" transform="translate(-216 -344)" fill="#969faa"/></g><g transform="translate(23.32 31.648)"><path d="M238.663,315.331H232v-1.666A1.665,1.665,0,0,1,233.666,312h1.666A3.332,3.332,0,0,1,238.663,315.331Z" transform="translate(-232 -312)" fill="#ccd1d9"/></g><g transform="translate(21.654 46.64)"><path d="M239.32,456v1.666a1.665,1.665,0,0,1-1.666,1.666H217.666A1.665,1.665,0,0,1,216,457.666V456h23.32Z" transform="translate(-216 -456)" fill="#ccd1d9"/></g><g transform="translate(38.311 40.975)"><path d="M382.663,406.94v.314H376a6.658,6.658,0,0,1,3.153-5.664A5.832,5.832,0,0,1,382.663,406.94Z" transform="translate(-376 -401.59)" fill="#e6e9ed"/></g><g transform="translate(26.651 26.709)"><path d="M270.663,273.054v1.584A2.5,2.5,0,0,0,269,276.994v.225a4.159,4.159,0,0,1-1.666-3.331V272.83A3.332,3.332,0,0,0,264,269.5V264.56A8.747,8.747,0,0,1,270.663,273.054Z" transform="translate(-264 -264.56)" fill="#ff826e"/></g><g transform="translate(19.988 26.089)"><path d="M203.331,258.746v7.079H200l2.167-7.225Z" transform="translate(-200 -258.6)" fill="#ff826e"/></g><g transform="translate(14.158 28.317)"><path d="M146.5,280l2.5,5h-5Z" transform="translate(-144 -280)" fill="#ff826e"/></g><g transform="translate(0 26.709)"><path d="M14.663,264.56v10.769H8v-2.275A8.747,8.747,0,0,1,14.663,264.56Z" transform="translate(-8 -264.56)" fill="#ff826e"/></g><g transform="translate(9.994 26.089)"><path d="M105.164,258.6l2.167,7.225H104v-7.079Z" transform="translate(-104 -258.6)" fill="#ff826e"/></g><g transform="translate(16.657 25.818)"><path d="M173.5,256.271l-2.167,7.225H170.5l-2.5-5,3.331-2.5Z" transform="translate(-168 -256)" fill="#fc6e51"/></g><g transform="translate(11.158 25.818)"><path d="M120.679,258.5l-2.5,5h-.833l-2.167-7.225,2.167-.271Z" transform="translate(-115.18 -256)" fill="#fc6e51"/></g><g transform="translate(16.657 38.311)"><path d="M176.328,377.666v5a1.665,1.665,0,0,1-1.666,1.666h-5a1.665,1.665,0,0,0,1.666-1.666V381a1.665,1.665,0,0,0-1.666-1.666H168v-1.666A1.665,1.665,0,0,1,169.666,376h5A1.665,1.665,0,0,1,176.328,377.666Z" transform="translate(-168 -376)" fill="#cf9e76"/></g><g transform="translate(0 37.478)"><path d="M14.663,371.374a5.642,5.642,0,0,1,.69-.043h1.012a5.709,5.709,0,0,1,1.563.219L22.991,373l.345-.345a1.667,1.667,0,0,1,1.178-.488h1.808a1.665,1.665,0,0,1,1.666,1.666V375.5a1.665,1.665,0,0,1-1.666,1.666H13.83A5.83,5.83,0,0,1,8,371.331V368h6.663v3.373Z" transform="translate(-8 -368)" fill="#f0d0b4"/></g><g transform="translate(31.648 36.645)"><path d="M318.663,362.5v.833a1.63,1.63,0,0,1-.065.459A1.665,1.665,0,0,1,317,365h-3.331A1.665,1.665,0,0,1,312,363.331V362.5a2.5,2.5,0,0,1,2.5-2.5h1.666A2.5,2.5,0,0,1,318.663,362.5Z" transform="translate(-312 -360)" fill="#f0d0b4"/></g><g transform="translate(24.153 9.994)"><path d="M240.833,104a2.5,2.5,0,0,1,0,5H240v-5Z" transform="translate(-240 -104)" fill="#f0d0b4"/></g><g transform="translate(9.161 7.879)"><path d="M104.8,83.768l2.027,2.027a5.692,5.692,0,0,0,1.233-1.845c.036-.09.072-.179.1-.271l.01,0,2.817,2.112V92.85a6.664,6.664,0,0,1-3.235,5.713l-.526.315a.833.833,0,0,0-.4.714v2.027l-3.331,2.5-3.331-2.5V99.593a.833.833,0,0,0-.4-.714l-.526-.315A6.664,6.664,0,0,1,96,92.85V85.8l2.817-2.112.01,0c.032.092.068.181.1.271a5.692,5.692,0,0,0,1.233,1.845l2.027-2.027h0a5.661,5.661,0,0,0,1.3,2.027,5.692,5.692,0,0,0,1.233-1.845c.025-.06.049-.121.071-.182Z" transform="translate(-96 -83.68)" fill="#f0d0b4"/></g><g transform="translate(5.83 9.994)"><path d="M67.331,104v5H66.5a2.5,2.5,0,0,1,0-5Z" transform="translate(-64 -104)" fill="#f0d0b4"/></g></g><g transform="translate(0 0)"><path d="M40.346,40.5l-.37-.021v-.508a3.335,3.335,0,0,0-3.331-3.331H34.98v-.609a9.593,9.593,0,0,0-7.7-9.39,5.787,5.787,0,0,0,1.031-2.971l.275-.275a7.574,7.574,0,0,0,2.234-5.392v-.061A7.8,7.8,0,0,0,29.5,13.606l-.355-.533V8.328A8.338,8.338,0,0,0,20.821,0H14.158A8.338,8.338,0,0,0,5.83,8.328v4.745l-.355.533a7.8,7.8,0,0,0,.975,9.845l.224.224A5.788,5.788,0,0,0,7.7,26.646,9.593,9.593,0,0,0,0,36.037v5.606a6.67,6.67,0,0,0,6.663,6.663H21.654v.833a2.5,2.5,0,0,0,2.5,2.5H44.141a2.5,2.5,0,0,0,2.5-2.5V47.157A6.665,6.665,0,0,0,40.346,40.5Zm4.6,6.135H40.036a5.787,5.787,0,0,1,2.327-3.872A5,5,0,0,1,44.947,46.64ZM39.6,42.132l.657.037c.079,0,.157.011.234.019a7.43,7.43,0,0,0-2.131,4.453H26.508a2.487,2.487,0,0,0,.143-.833v-5a2.5,2.5,0,0,0-2.5-2.5H23.32v-.833a.834.834,0,0,1,.833-.833h5.83v.225a5.026,5.026,0,0,0,1.666,3.721v.218a2.5,2.5,0,0,0,2.5,2.5h3.331A2.5,2.5,0,0,0,39.6,42.132ZM22.487,46.64h-.976a2.487,2.487,0,0,0,.143-.833V44.141a2.5,2.5,0,0,0-2.5-2.5h-.833V40.81a.834.834,0,0,1,.833-.833h5a.834.834,0,0,1,.833.833v5a.834.834,0,0,1-.833.833ZM8.328,28.226c.089-.014.178-.029.268-.04l1.4-.175V34.98H23.32v.143a2.5,2.5,0,0,0-1.666,2.355v.833h-2.5a2.5,2.5,0,0,0-2.5,2.5v.929a2.485,2.485,0,0,0-1.075.634L10.989,41.06A6.523,6.523,0,0,0,9.2,40.81H8.328Zm.833-13.234a1.666,1.666,0,1,1,0-3.331Zm1.666-3.748,1.665-1.249a6.548,6.548,0,0,0,1.078,1.421l.589.589,1.792-1.792a6.565,6.565,0,0,0,.95,1.2L17.49,12l.589-.589a6.569,6.569,0,0,0,.95-1.2L20.821,12l.589-.589a6.546,6.546,0,0,0,1.078-1.421l1.665,1.249v6.638a5.859,5.859,0,0,1-2.83,5L20.8,23.2a1.674,1.674,0,0,0-.809,1.428v1.611l-2.5,1.874-2.5-1.874V24.624a1.674,1.674,0,0,0-.809-1.428l-.525-.315a5.86,5.86,0,0,1-2.83-5Zm14.991,3.748V11.66a1.666,1.666,0,0,1,0,3.331Zm.565,13.195c.09.011.179.026.268.04v3.423h-.833a2.487,2.487,0,0,0-.833.143V28.011Zm-14.723.531,1.379,4.6H11.66Zm5.83,2.3,1.151,2.3h-2.3Zm5.83,2.3H21.941l1.379-4.6Zm1.666.833a.834.834,0,0,1,.833-.833h1.666a2.5,2.5,0,0,1,2.355,1.666H24.985Zm-4.671-1.21L18.546,29.4l2.506-1.88.856.107Zm-6.387-5.418,2.506,1.88-1.769,3.538-1.593-5.311ZM36.645,38.311a1.668,1.668,0,0,1,1.666,1.666v.833a.834.834,0,0,1-.833.833H34.147a.834.834,0,0,1-.833-.833v-.833a1.668,1.668,0,0,1,1.666-1.666Zm-3.331-2.274v1.057a3.354,3.354,0,0,0-1.282,1.333,3.319,3.319,0,0,1-.384-1.556V35.812a4.171,4.171,0,0,0-3.331-4.08V28.683a7.928,7.928,0,0,1,5,7.353ZM29.15,18.008A5.919,5.919,0,0,1,27.4,22.222l-.753.752v.345a4.139,4.139,0,0,1-1.335,3.054l-3.662-.458V24.624l.525-.315a7.534,7.534,0,0,0,3.639-6.428V16.657a3.329,3.329,0,0,0,2.714-1.4,6.152,6.152,0,0,1,.617,2.694ZM14.158,1.666h6.663a6.67,6.67,0,0,1,6.663,6.663v2.114a3.3,3.3,0,0,0-1.269-.424,8.765,8.765,0,0,0,.436-2.72V6.663H24.985V7.3a7.091,7.091,0,0,1-.358,2.218l-1.5-1.125a6.563,6.563,0,0,0,.193-1.586V6.663H21.654v.143A4.819,4.819,0,0,1,20.771,9.6L19.745,8.573a6.549,6.549,0,0,0,.243-1.768V6.663H18.323v.143a4.82,4.82,0,0,1-.833,2.721,4.819,4.819,0,0,1-.833-2.721V6.663H14.991v.143a6.549,6.549,0,0,0,.243,1.768L14.208,9.6a4.819,4.819,0,0,1-.883-2.793V6.663H11.66v.143a6.564,6.564,0,0,0,.193,1.586l-1.5,1.125A7.091,7.091,0,0,1,9.994,7.3V6.663H8.328V7.3a8.766,8.766,0,0,0,.436,2.72,3.307,3.307,0,0,0-1.269.424V8.328a6.67,6.67,0,0,1,6.663-6.663ZM5.83,17.934a6.115,6.115,0,0,1,.617-2.681,3.329,3.329,0,0,0,2.714,1.4v1.225A7.533,7.533,0,0,0,12.8,24.309l.525.315v1.292l-3.662.458A4.139,4.139,0,0,1,8.328,23.32v-.345l-.7-.7A6.1,6.1,0,0,1,5.83,17.934Zm.833,10.749v8.795h-5V36.037A7.928,7.928,0,0,1,6.663,28.683ZM17.49,46.64H6.663a5,5,0,0,1-5-5v-2.5h5v1.845a6.478,6.478,0,0,0-3.087,1.73L4.753,43.9a4.822,4.822,0,0,1,3.432-1.422H9.2a4.855,4.855,0,0,1,1.333.187l5.535,1.581.692-.691a.827.827,0,0,1,.589-.244h1.809a.834.834,0,0,1,.833.833v1.666a.834.834,0,0,1-.833.833Zm26.651,3.331H24.153a.834.834,0,0,1-.833-.833v-.833H44.974v.833A.834.834,0,0,1,44.141,49.971Z" transform="translate(0 0)"/></g></g></g></svg>