<svg xmlns="http://www.w3.org/2000/svg" xmlns:xlink="http://www.w3.org/1999/xlink" width="521" height="395" viewBox="0 0 521 395">
  <defs>
    <clipPath id="clip-path">
      <rect id="Rectangle_405105" data-name="Rectangle 405105" width="360.744" height="360.744" fill="none"/>
    </clipPath>
  </defs>
  <g id="Group_1177597" data-name="Group 1177597" transform="translate(9559 2434)">
    <rect id="Rectangle_405103" data-name="Rectangle 405103" width="521" height="395" transform="translate(-9559 -2434)" fill="#fff"/>
    <g id="Group_1177595" data-name="Group 1177595" transform="translate(-9480.916 -2418.916)">
      <g id="Group_1177599" data-name="Group 1177599" transform="translate(1.916 1.917)">
        <g id="Group_1177598" data-name="Group 1177598" transform="translate(0 -0.001)" clip-path="url(#clip-path)">
          <path id="Path_1033884" data-name="Path 1033884" d="M0,180.372A180.372,180.372,0,1,0,180.372,0,180.372,180.372,0,0,0,0,180.372" transform="translate(0 0.001)" fill="#e3e3e2"/>
          <path id="Path_1033885" data-name="Path 1033885" d="M308.491,112.2c.5,1.52,1.537,3.116,3.345,3.008a4.072,4.072,0,0,0,1.287-.3c3.6-1.327,7.346-2.226,10.92-3.633a10.3,10.3,0,0,0,4.327-2.774,9.8,9.8,0,0,0,1.934-4.283,31.963,31.963,0,0,0,.527-4.9,27.281,27.281,0,0,0-.119-5.417,10.178,10.178,0,0,0-1.755-4.572,9.259,9.259,0,0,0-3.039-2.636,11.567,11.567,0,0,0-8.068-1.035,12.315,12.315,0,0,0-7.106,5.063,16.927,16.927,0,0,0-2.941,8.716c-.121,2.1-.172,4.224-.133,6.33a21.916,21.916,0,0,0,.82,6.436" transform="translate(-108.785 -30.177)" fill="#d66541"/>
          <path id="Path_1033886" data-name="Path 1033886" d="M352.607,103.2a.39.39,0,0,0,.051.129c0,.015,0,.029.005.045.232,1.063.424,2.134.671,3.193a9.686,9.686,0,0,0,.818,2.367,6.193,6.193,0,0,0,4.077,3.023,9.667,9.667,0,0,0,5.955-.519,5.7,5.7,0,0,0,2.317-1.816,9.269,9.269,0,0,0,1.413-3.186c.35-1.286.63-2.6.889-3.9a26.217,26.217,0,0,0,.546-4.321,12.2,12.2,0,0,0-1.684-6.9,7.628,7.628,0,0,0-5.161-3.571,9.178,9.178,0,0,0-10.047,6.287,16.547,16.547,0,0,0-.158,7.308c.092.622.2,1.241.307,1.86" transform="translate(-124.453 -30.988)" fill="#d66541"/>
          <path id="Path_1033887" data-name="Path 1033887" d="M389.44,118.514c3.147,1.313,7.256.1,8.685-3.122a10.725,10.725,0,0,0,.769-3.04,31.776,31.776,0,0,0,.24-3.2,14.642,14.642,0,0,0-1.069-6.359,8.349,8.349,0,0,0-3.71-3.987,6,6,0,0,0-5.286-.2,7.8,7.8,0,0,0-3.674,3.843,15.539,15.539,0,0,0-1.174,6.337c-.009.537-.007,1.072,0,1.609a.607.607,0,0,0-.012.08,7.934,7.934,0,0,0,1.412,5.021,8.939,8.939,0,0,0,3.822,3.019" transform="translate(-135.848 -34.681)" fill="#d66541"/>
          <path id="Path_1033888" data-name="Path 1033888" d="M413.741,132.1a6.333,6.333,0,0,0,4.328.561,5.334,5.334,0,0,0,3.539-2.643,9.811,9.811,0,0,0,.883-2.473q.329-1.4.52-2.83a11.768,11.768,0,0,0-.409-5.6c-1.073-2.9-4.143-5.321-7.328-4.2a6.974,6.974,0,0,0-3.58,3.074,13.75,13.75,0,0,0-1.561,5.267c-.054.407-.1.815-.146,1.223a.277.277,0,0,0-.012.039,7,7,0,0,0,.727,4.611,7.634,7.634,0,0,0,3.039,2.976" transform="translate(-144.924 -40.532)" fill="#d66541"/>
          <path id="Path_1033889" data-name="Path 1033889" d="M443.86,144.053a7.091,7.091,0,0,0-2.754-3.591,4.487,4.487,0,0,0-4.257-.385A6.635,6.635,0,0,0,433.7,143.3a14.819,14.819,0,0,0-1.239,5.361c-.036.44-.064.88-.09,1.32a.671.671,0,0,0-.014.08,7.313,7.313,0,0,0,.876,4.461,7.157,7.157,0,0,0,2.871,2.769,5.415,5.415,0,0,0,4.055.343,5.13,5.13,0,0,0,3.187-2.91,10.9,10.9,0,0,0,.694-2.535c.153-.913.277-1.833.351-2.756a12.945,12.945,0,0,0-.535-5.381" transform="translate(-152.861 -49.4)" fill="#d66541"/>
          <path id="Path_1033890" data-name="Path 1033890" d="M388.219,158.563A47.73,47.73,0,0,0,376.182,146a60.27,60.27,0,0,0-15.425-8.269,61.421,61.421,0,0,0-17.224-3.576A57.186,57.186,0,0,0,326,135.767c-8.8,2.24-17.059,4.827-19.467,14.674-1.054,4.308-.849,8.811-.637,13.24.683,14.3,2.014,28.514,1.189,42.766q-.985,17.018-1.972,34.035c-1.2,20.758,4.95,40.972,10.482,60.726,4.19,14.962,4.753,41.8,20.726,49.608a22.079,22.079,0,0,0,20.456-.753c9.911-5.785,13.625-18.238,14.761-29.659,1.5-15.1,3.193-30.429,6.591-45.236,3.58-15.6,9.007-30.7,12.982-46.194,5.474-21.344,9.616-50.588-2.9-70.413" transform="translate(-107.833 -47.396)" fill="#d66541"/>
          <path id="Path_1033891" data-name="Path 1033891" d="M236.863,112.2c-.5,1.52-1.537,3.116-3.345,3.008a4.072,4.072,0,0,1-1.287-.3c-3.6-1.327-7.346-2.226-10.92-3.633a10.3,10.3,0,0,1-4.327-2.774,9.8,9.8,0,0,1-1.934-4.283,31.965,31.965,0,0,1-.527-4.9,27.284,27.284,0,0,1,.119-5.417,10.177,10.177,0,0,1,1.755-4.572,9.258,9.258,0,0,1,3.039-2.636,11.567,11.567,0,0,1,8.068-1.035,12.315,12.315,0,0,1,7.106,5.063,16.927,16.927,0,0,1,2.941,8.716c.121,2.1.172,4.224.133,6.33a21.915,21.915,0,0,1-.82,6.436" transform="translate(-75.826 -30.177)" fill="#d66541"/>
          <path id="Path_1033892" data-name="Path 1033892" d="M195.956,103.2a.389.389,0,0,1-.051.129c0,.015,0,.029-.005.045-.232,1.063-.424,2.134-.671,3.193a9.685,9.685,0,0,1-.818,2.367,6.193,6.193,0,0,1-4.078,3.023,9.665,9.665,0,0,1-5.954-.519,5.7,5.7,0,0,1-2.317-1.816,9.268,9.268,0,0,1-1.413-3.186c-.35-1.286-.63-2.6-.889-3.9a26.215,26.215,0,0,1-.546-4.321,12.2,12.2,0,0,1,1.684-6.9,7.628,7.628,0,0,1,5.161-3.571,9.178,9.178,0,0,1,10.046,6.287,16.547,16.547,0,0,1,.158,7.308c-.092.622-.2,1.241-.307,1.86" transform="translate(-63.366 -30.988)" fill="#d66541"/>
          <path id="Path_1033893" data-name="Path 1033893" d="M160.458,118.514c-3.147,1.313-7.256.1-8.685-3.122a10.724,10.724,0,0,1-.769-3.04,31.785,31.785,0,0,1-.24-3.2,14.643,14.643,0,0,1,1.069-6.359,8.349,8.349,0,0,1,3.71-3.987,6,6,0,0,1,5.286-.2,7.8,7.8,0,0,1,3.674,3.843,15.539,15.539,0,0,1,1.174,6.337c.009.537.007,1.072,0,1.609a.6.6,0,0,1,.012.08,7.934,7.934,0,0,1-1.412,5.021,8.939,8.939,0,0,1-3.822,3.019" transform="translate(-53.306 -34.681)" fill="#d66541"/>
          <path id="Path_1033894" data-name="Path 1033894" d="M137.056,132.1a6.333,6.333,0,0,1-4.328.561,5.334,5.334,0,0,1-3.539-2.643,9.811,9.811,0,0,1-.883-2.473q-.329-1.4-.52-2.83a11.767,11.767,0,0,1,.409-5.6c1.073-2.9,4.143-5.321,7.328-4.2a6.974,6.974,0,0,1,3.58,3.074,13.751,13.751,0,0,1,1.561,5.267c.054.407.1.815.146,1.223a.271.271,0,0,1,.012.039,7,7,0,0,1-.727,4.611,7.634,7.634,0,0,1-3.039,2.976" transform="translate(-45.13 -40.532)" fill="#d66541"/>
          <path id="Path_1033895" data-name="Path 1033895" d="M107.566,144.053a7.091,7.091,0,0,1,2.754-3.591,4.487,4.487,0,0,1,4.257-.385,6.635,6.635,0,0,1,3.145,3.224,14.819,14.819,0,0,1,1.239,5.361c.036.44.064.88.09,1.32a.668.668,0,0,1,.014.08,7.309,7.309,0,0,1-.877,4.461,7.151,7.151,0,0,1-2.871,2.769,5.415,5.415,0,0,1-4.055.343,5.129,5.129,0,0,1-3.187-2.91,10.9,10.9,0,0,1-.694-2.535c-.153-.913-.277-1.833-.351-2.756a12.934,12.934,0,0,1,.535-5.381" transform="translate(-37.823 -49.4)" fill="#d66541"/>
          <path id="Path_1033896" data-name="Path 1033896" d="M119.828,158.563A47.729,47.729,0,0,1,131.864,146a60.27,60.27,0,0,1,15.425-8.269,61.421,61.421,0,0,1,17.224-3.576,57.186,57.186,0,0,1,17.529,1.614c8.8,2.24,17.059,4.827,19.467,14.674,1.054,4.308.849,8.811.637,13.24-.683,14.3-2.014,28.514-1.188,42.766q.985,17.018,1.972,34.035c1.2,20.758-4.95,40.972-10.482,60.726-4.19,14.962-4.753,41.8-20.726,49.608a22.079,22.079,0,0,1-20.456-.753c-9.911-5.785-13.625-18.238-14.761-29.659-1.5-15.1-3.193-30.429-6.591-45.236-3.58-15.6-9.007-30.7-12.982-46.194-5.474-21.344-9.616-50.588,2.9-70.413" transform="translate(-39.47 -47.396)" fill="#d66541"/>
        </g>
      </g>
    </g>
  </g>
</svg>
