<svg xmlns="http://www.w3.org/2000/svg" xmlns:xlink="http://www.w3.org/1999/xlink" width="521" height="395" viewBox="0 0 521 395">
  <defs>
    <clipPath id="clip-path">
      <rect id="Rectangle_405106" data-name="Rectangle 405106" width="359.834" height="359.834" fill="none"/>
    </clipPath>
  </defs>
  <g id="Group_1177596" data-name="Group 1177596" transform="translate(9559 2434)">
    <rect id="Rectangle_405103" data-name="Rectangle 405103" width="521" height="395" transform="translate(-9559 -2434)" fill="#fff"/>
    <g id="Group_1177601" data-name="Group 1177601" transform="translate(-9478 -2415.999)">
      <g id="Group_1177600" data-name="Group 1177600" transform="translate(0 -0.001)" clip-path="url(#clip-path)">
        <path id="Path_1033897" data-name="Path 1033897" d="M0,179.917A179.917,179.917,0,1,0,179.917,0,179.917,179.917,0,0,0,0,179.917" transform="translate(0 0.001)" fill="#e3e3e2"/>
        <path id="Path_1033898" data-name="Path 1033898" d="M226.855,114.636c-.751,1.873-2.175,3.8-4.441,3.524a5.163,5.163,0,0,1-1.6-.478c-4.428-1.95-9.068-3.372-13.455-5.421a12.977,12.977,0,0,1-5.227-3.827,12.358,12.358,0,0,1-2.1-5.538,40.251,40.251,0,0,1-.281-6.208,34.326,34.326,0,0,1,.572-6.8,12.815,12.815,0,0,1,2.563-5.614,11.665,11.665,0,0,1,4.028-3.08,14.574,14.574,0,0,1,10.229-.673,15.521,15.521,0,0,1,8.545,6.922,21.337,21.337,0,0,1,3.02,11.193c-.012,2.655-.112,5.327-.326,7.973a27.625,27.625,0,0,1-1.533,8.032" transform="translate(-70.955 -28.379)" fill="#41a056"/>
        <path id="Path_1033899" data-name="Path 1033899" d="M182.682,108.126a.411.411,0,0,1-.047.139c0,.016,0,.031,0,.048-.186,1.13-.329,2.267-.531,3.395a10.226,10.226,0,0,1-.731,2.533,6.524,6.524,0,0,1-4.123,3.4,10.182,10.182,0,0,1-6.291-.22,6.021,6.021,0,0,1-2.535-1.783,9.782,9.782,0,0,1-1.661-3.273c-.437-1.333-.8-2.7-1.148-4.058a27.6,27.6,0,0,1-.811-4.514,12.849,12.849,0,0,1,1.394-7.343,8.035,8.035,0,0,1,5.232-4.038,9.666,9.666,0,0,1,10.91,6.063,17.442,17.442,0,0,1,.566,7.677c-.063.658-.141,1.316-.222,1.972" transform="translate(-58.521 -32.757)" fill="#41a056"/>
        <path id="Path_1033900" data-name="Path 1033900" d="M152.034,129.387c-3.145,1.731-7.585.93-9.447-2.283a11.3,11.3,0,0,1-1.15-3.1,33.816,33.816,0,0,1-.615-3.326,15.425,15.425,0,0,1,.4-6.779,8.788,8.788,0,0,1,3.431-4.6,6.323,6.323,0,0,1,5.513-.808,8.215,8.215,0,0,1,4.282,3.608,16.363,16.363,0,0,1,1.948,6.5c.07.56.129,1.122.186,1.684a.606.606,0,0,1,.022.082,8.355,8.355,0,0,1-.909,5.417,9.408,9.408,0,0,1-3.659,3.595" transform="translate(-49.954 -38.431)" fill="#41a056"/>
        <path id="Path_1033901" data-name="Path 1033901" d="M130.157,148.114a6.668,6.668,0,0,1-4.59.228,5.618,5.618,0,0,1-3.495-3.07,10.321,10.321,0,0,1-.72-2.67c-.152-1-.257-2.006-.31-3.014a12.388,12.388,0,0,1,.9-5.849c1.369-2.954,4.794-5.24,8.044-3.8a7.34,7.34,0,0,1,3.5,3.526,14.48,14.48,0,0,1,1.2,5.66c.023.432.038.863.052,1.3,0,.014.008.027.01.041a7.381,7.381,0,0,1-1.149,4.78,8.036,8.036,0,0,1-3.439,2.871" transform="translate(-42.987 -45.999)" fill="#41a056"/>
        <path id="Path_1033902" data-name="Path 1033902" d="M106.373,156.4a7.472,7.472,0,0,1,2.965-3.732,4.726,4.726,0,0,1,4.489-.328,6.992,6.992,0,0,1,3.254,3.451,15.6,15.6,0,0,1,1.208,5.668c.03.463.051.927.071,1.391a.731.731,0,0,1,.014.085,7.7,7.7,0,0,1-1,4.681,7.534,7.534,0,0,1-3.074,2.863,5.7,5.7,0,0,1-4.276.288,5.407,5.407,0,0,1-3.3-3.121,11.481,11.481,0,0,1-.685-2.682c-.144-.963-.258-1.935-.319-2.907a13.618,13.618,0,0,1,.66-5.657" transform="translate(-37.536 -53.965)" fill="#41a056"/>
        <path id="Path_1033903" data-name="Path 1033903" d="M195.744,309.708c-2.5-3.577-5.432-6.817-8.263-10.128-1.412-1.651-2.8-3.324-4.1-5.067a.56.56,0,0,1-.1-.131c-4.746-5.78-9.667-11.411-14.456-17.153-2.426-2.91-4.824-5.845-7.142-8.841-2.256-2.916-4.385-5.919-6.5-8.938-4.154-5.922-8.243-11.987-10.719-18.835a60.833,60.833,0,0,1-2.667-10.355,64.8,64.8,0,0,1-1-10.56c-.039-6.523,2.842-13.089,7-18.028q.8-.956,1.686-1.84a27.835,27.835,0,0,1,6.2-4.682,31.744,31.744,0,0,1,10.1-3.39,65.559,65.559,0,0,1,10.643-.76,63.079,63.079,0,0,0,9.962-.637c6.773-1.11,13.624-4.2,16.842-10.62a20.986,20.986,0,0,0-.767-19.44c-3.418-6.076-9.367-10.409-15.839-12.765-7.484-2.725-15.723-3.018-23.583-2.27a69.572,69.572,0,0,0-20.824,5.2,53.624,53.624,0,0,0-17.572,11.94,46.393,46.393,0,0,0-10.632,17.78,43.6,43.6,0,0,0-1.612,20.532,40.156,40.156,0,0,0,1.172,5.016c2.528,9.222,4.911,18.485,7.062,27.8,2.2,9.536,4.165,19.131,5.764,28.787,1.566,9.451,2.783,18.966,3.454,28.523s1.239,19.087,3.279,28.477a72.377,72.377,0,0,0,8.052,21.647A38.9,38.9,0,0,0,155.838,355.5a35.636,35.636,0,0,0,11.523,3.979,33.235,33.235,0,0,0,13.864-1.07c7.14-1.967,14.559-5.4,18.682-11.854A23.957,23.957,0,0,0,203.215,335a38.223,38.223,0,0,0-1.687-13.373,42.311,42.311,0,0,0-5.785-11.914" transform="translate(-39.728 -51.476)" fill="#41a056"/>
        <path id="Path_1033904" data-name="Path 1033904" d="M315.26,114.636c.751,1.873,2.175,3.8,4.441,3.524a5.163,5.163,0,0,0,1.6-.478c4.428-1.95,9.068-3.372,13.455-5.421a12.977,12.977,0,0,0,5.227-3.827,12.358,12.358,0,0,0,2.1-5.538,40.248,40.248,0,0,0,.282-6.208,34.374,34.374,0,0,0-.573-6.8,12.821,12.821,0,0,0-2.562-5.614,11.674,11.674,0,0,0-4.029-3.08,14.574,14.574,0,0,0-10.229-.673,15.521,15.521,0,0,0-8.545,6.922A21.337,21.337,0,0,0,313.4,98.63c.012,2.655.112,5.327.326,7.973a27.626,27.626,0,0,0,1.533,8.032" transform="translate(-111.326 -28.379)" fill="#41a056"/>
        <path id="Path_1033905" data-name="Path 1033905" d="M365.3,108.126a.41.41,0,0,0,.047.139c0,.016,0,.031,0,.048.186,1.13.329,2.267.531,3.395a10.225,10.225,0,0,0,.731,2.533,6.524,6.524,0,0,0,4.123,3.4,10.182,10.182,0,0,0,6.291-.22,6.021,6.021,0,0,0,2.535-1.783,9.782,9.782,0,0,0,1.661-3.273c.437-1.333.8-2.7,1.148-4.058a27.6,27.6,0,0,0,.811-4.514,12.85,12.85,0,0,0-1.394-7.343,8.035,8.035,0,0,0-5.232-4.038,9.666,9.666,0,0,0-10.91,6.063,17.441,17.441,0,0,0-.566,7.677c.063.658.141,1.316.222,1.972" transform="translate(-129.623 -32.757)" fill="#41a056"/>
        <path id="Path_1033906" data-name="Path 1033906" d="M397.177,129.387c3.145,1.731,7.585.93,9.447-2.283a11.3,11.3,0,0,0,1.15-3.1c.26-1.1.465-2.21.615-3.326a15.425,15.425,0,0,0-.4-6.779,8.788,8.788,0,0,0-3.431-4.6,6.323,6.323,0,0,0-5.513-.808,8.215,8.215,0,0,0-4.282,3.608,16.362,16.362,0,0,0-1.948,6.5c-.07.56-.129,1.122-.186,1.684a.606.606,0,0,0-.022.082,8.355,8.355,0,0,0,.909,5.417,9.408,9.408,0,0,0,3.659,3.595" transform="translate(-139.423 -38.431)" fill="#41a056"/>
        <path id="Path_1033907" data-name="Path 1033907" d="M420.334,148.114a6.668,6.668,0,0,0,4.59.228,5.619,5.619,0,0,0,3.495-3.07,10.322,10.322,0,0,0,.72-2.67c.152-1,.257-2.006.31-3.014a12.389,12.389,0,0,0-.9-5.849c-1.369-2.954-4.794-5.24-8.044-3.8a7.344,7.344,0,0,0-3.5,3.526,14.491,14.491,0,0,0-1.2,5.66c-.023.432-.038.863-.052,1.3,0,.014-.008.027-.01.041a7.38,7.38,0,0,0,1.149,4.78,8.036,8.036,0,0,0,3.439,2.871" transform="translate(-147.67 -45.999)" fill="#41a056"/>
        <path id="Path_1033908" data-name="Path 1033908" d="M444.68,156.4a7.472,7.472,0,0,0-2.965-3.732,4.726,4.726,0,0,0-4.489-.328,6.991,6.991,0,0,0-3.254,3.451,15.6,15.6,0,0,0-1.208,5.668c-.03.463-.051.927-.071,1.391a.736.736,0,0,0-.014.085,7.7,7.7,0,0,0,1,4.681,7.534,7.534,0,0,0,3.074,2.863,5.7,5.7,0,0,0,4.276.288,5.407,5.407,0,0,0,3.3-3.121,11.482,11.482,0,0,0,.685-2.682c.144-.963.258-1.935.319-2.907a13.618,13.618,0,0,0-.66-5.657" transform="translate(-153.683 -53.965)" fill="#41a056"/>
        <path id="Path_1033909" data-name="Path 1033909" d="M310.861,309.708c2.5-3.577,5.432-6.817,8.263-10.128,1.412-1.651,2.8-3.324,4.1-5.067a.633.633,0,0,1,.052-.057.74.74,0,0,1,.049-.074c4.745-5.78,9.667-11.411,14.456-17.153,2.426-2.91,4.823-5.845,7.142-8.841,2.256-2.916,4.385-5.919,6.5-8.938,4.153-5.922,8.243-11.987,10.719-18.835a60.831,60.831,0,0,0,2.667-10.355,64.66,64.66,0,0,0,1-10.56c.039-6.523-2.842-13.089-7-18.028q-.8-.956-1.686-1.84a27.835,27.835,0,0,0-6.2-4.682,31.739,31.739,0,0,0-10.105-3.39,65.554,65.554,0,0,0-10.643-.76,63.079,63.079,0,0,1-9.962-.637c-6.773-1.11-13.624-4.2-16.842-10.62a20.988,20.988,0,0,1,.767-19.44c3.418-6.076,9.367-10.409,15.839-12.765,7.485-2.725,15.723-3.018,23.583-2.27a69.573,69.573,0,0,1,20.823,5.2,53.617,53.617,0,0,1,17.572,11.94,46.4,46.4,0,0,1,10.632,17.78,43.6,43.6,0,0,1,1.611,20.532,40.259,40.259,0,0,1-1.171,5.016c-2.528,9.222-4.911,18.485-7.063,27.8-2.2,9.536-4.165,19.131-5.764,28.787-1.566,9.451-2.782,18.966-3.454,28.523s-1.239,19.087-3.278,28.477a72.378,72.378,0,0,1-8.053,21.647,38.9,38.9,0,0,1-14.65,14.522,35.636,35.636,0,0,1-11.523,3.979,33.234,33.234,0,0,1-13.864-1.07c-7.141-1.967-14.56-5.4-18.682-11.854A23.963,23.963,0,0,1,303.39,335a38.222,38.222,0,0,1,1.686-13.373,42.312,42.312,0,0,1,5.785-11.914" transform="translate(-107.042 -51.476)" fill="#41a056"/>
      </g>
    </g>
  </g>
</svg>
