<svg xmlns="http://www.w3.org/2000/svg" xmlns:xlink="http://www.w3.org/1999/xlink" width="98" height="98" viewBox="0 0 98 98"><defs><filter id="a" x="0" y="0" width="98" height="98" filterUnits="userSpaceOnUse"><feOffset dy="3" input="SourceAlpha"/><feGaussianBlur stdDeviation="3" result="b"/><feFlood flood-opacity="0.161"/><feComposite operator="in" in2="b"/><feComposite in="SourceGraphic"/></filter></defs><g transform="translate(-954 -7653.983)"><g transform="translate(678 1562.576)"><g transform="translate(-734.73 3020.407)"><g transform="matrix(1, 0, 0, 1, 1010.73, 3071)" filter="url(#a)"><g transform="translate(9 6)" fill="#ffd63c"><path d="M 39.99997329711914 78.50040435791016 C 34.80184936523438 78.50040435791016 29.76000595092773 77.48268127441406 25.01450729370117 75.47550201416016 C 20.43013954162598 73.53648376464844 16.3126392364502 70.76027679443359 12.7763843536377 67.22402191162109 C 9.240128517150879 63.68776702880859 6.463928699493408 59.57027053833008 4.524906635284424 54.98590087890625 C 2.517728805541992 50.24040222167969 1.500006675720215 45.19855880737305 1.500006675720215 40.00043487548828 C 1.500006675720215 34.80185699462891 2.517728805541992 29.76001358032227 4.524906635284424 25.01451301574707 C 6.463928699493408 20.43013572692871 9.240128517150879 16.31263542175293 12.7763843536377 12.77637958526611 C 16.3126392364502 9.240124702453613 20.43013954162598 6.463935375213623 25.01450729370117 4.52490234375 C 29.76000595092773 2.517724514007568 34.80184936523438 1.500002145767212 39.99997329711914 1.500002145767212 C 45.19809722900391 1.500002145767212 50.23994064331055 2.517724514007568 54.98543930053711 4.52490234375 C 59.56981658935547 6.463935375213623 63.68731689453125 9.240124702453613 67.22357177734375 12.77637958526611 C 70.75982666015625 16.31263542175293 73.53601837158203 20.43013572692871 75.47505187988281 25.01451301574707 C 77.48223114013672 29.76001358032227 78.49995422363281 34.80185699462891 78.49995422363281 39.99998092651367 C 78.49995422363281 45.19855880737305 77.48223114013672 50.24040222167969 75.47505187988281 54.98590087890625 C 73.53601837158203 59.57027053833008 70.75982666015625 63.68776702880859 67.22357177734375 67.22402191162109 C 63.68731689453125 70.76027679443359 59.56981658935547 73.53648376464844 54.98543930053711 75.47550201416016 C 50.23994064331055 77.48268127441406 45.19809722900391 78.50040435791016 39.99997329711914 78.50040435791016 Z" stroke="none"/><path d="M 39.99997329711914 3 C 35.00369262695312 3 30.15843963623047 3.977851867675781 25.59883880615234 5.906417846679688 C 21.19326782226562 7.769813537597656 17.23602676391602 10.43805694580078 13.83704376220703 13.83704376220703 C 10.43805694580078 17.23601531982422 7.769813537597656 21.19325637817383 5.906410217285156 25.59882736206055 C 3.977851867675781 30.15844345092773 3 35.00368118286133 3 40.00042724609375 C 3 44.99672317504883 3.977851867675781 49.84196472167969 5.906410217285156 54.40157318115234 C 7.769813537597656 58.80714797973633 10.43805694580078 62.76438903808594 13.83704376220703 66.16336059570312 C 17.23602676391602 69.56234741210938 21.19326782226562 72.2305908203125 25.59883880615234 74.09398651123047 C 30.15843963623047 76.02255249023438 35.00369262695312 77.00040435791016 39.99997329711914 77.00040435791016 C 44.99625396728516 77.00040435791016 49.84150695800781 76.02255249023438 54.40110778808594 74.09398651123047 C 58.80667877197266 72.2305908203125 62.76391983032227 69.56234741210938 66.16290283203125 66.16336059570312 C 69.5618896484375 62.76438903808594 72.23013305664062 58.80714797973633 74.09353637695312 54.40157318115234 C 76.0220947265625 49.84196472167969 76.99994659423828 44.99672317504883 76.99994659423828 39.99997711181641 C 76.99994659423828 35.00368118286133 76.0220947265625 30.15844345092773 74.09353637695312 25.59882736206055 C 72.23013305664062 21.19325637817383 69.5618896484375 17.23601531982422 66.16290283203125 13.83704376220703 C 62.76391983032227 10.43805694580078 58.80667877197266 7.769813537597656 54.40110778808594 5.906417846679688 C 49.84150695800781 3.977851867675781 44.99625396728516 3 39.99997329711914 3 M 39.99997329711914 0 C 62.09134674072266 0 79.99994659423828 17.90858840942383 79.99994659423828 39.99997711181641 L 79.99994659423828 40.00042724609375 C 79.99994659423828 62.09181594848633 62.09134674072266 80.00040435791016 39.99997329711914 80.00040435791016 C 17.90859985351562 80.00040435791016 0 62.09181594848633 0 40.00042724609375 L 0 39.99997711181641 C 0 17.90858840942383 17.90859985351562 0 39.99997329711914 0 Z" stroke="none" fill="#fff"/></g></g></g></g><g transform="translate(954.216 7589.717)"><path d="M77.7,233.923v6.731H64.236v-3.846a36.438,36.438,0,0,1-16.292,3.846h-3.7a36.47,36.47,0,0,1-15.075-3.266l-2.324-1.056a1.41,1.41,0,0,1-.784-1.625l.267-1.065a1.407,1.407,0,0,1,1.951-.941,45.822,45.822,0,0,0,18.962,4.107h3.393a18.857,18.857,0,0,0,1.969-.1,19.086,19.086,0,0,0,7.307-2.3,19.1,19.1,0,0,1,9.276-2.4h6.589A1.922,1.922,0,0,1,77.7,233.923Z" transform="translate(-7.04 -123.917)" fill="gray"/><path d="M124.331,102.235a5.041,5.041,0,0,1-.663,2.5l-1.828,3.2-.811,1.419-3.846,6.731-6.731-2.885-7.862-1.9,1.15-.13q.768-.085,1.522-.233a18.4,18.4,0,0,0,10.92-6.689c.095-.12.191-.24.291-.358a18.184,18.184,0,0,1,1.916-1.993l2.516-2.249a1.923,1.923,0,0,1,3.067.719A5.041,5.041,0,0,1,124.331,102.235Z" transform="translate(-74.409 -7.04)" fill="#bc8d5d"/><path d="M202.617,149.755l-5.769.962-1.683-2.1-5.305-6.632a18.447,18.447,0,0,0,3.1-3.1c.095-.12.191-.24.291-.358l4.555,5.466Z" transform="translate(-151.19 -41.672)" fill="#cc9f74"/><path d="M83.9,126.731c0,.081,0,.161,0,.242a24.465,24.465,0,0,1-.94,6.489H74.448c-.338,0-.674.008-1.011.028a19.081,19.081,0,0,0-8.265,2.376,19.065,19.065,0,0,1-7.307,2.3,18.845,18.845,0,0,1-1.969.1H52.5a45.824,45.824,0,0,1-18.964-4.108,2.627,2.627,0,0,1,.572-4.968,11.654,11.654,0,0,1,5.347.184A27.544,27.544,0,0,0,55.2,129l27.762-9a24.435,24.435,0,0,1,.882,5.016Q83.9,125.872,83.9,126.731Z" transform="translate(-12.302 -25.378)" fill="#bc8d5d"/><rect width="8.654" height="3.846" transform="translate(58.157 126.352)" fill="#4d4d4d"/><path d="M150.752,385.161H136.186a12.743,12.743,0,0,1-8.227-3.011l-1.421-1.2h24.694Z" transform="translate(-95.479 -254.963)" fill="#4d4d4d"/><path d="M342.423,248h0a27.184,27.184,0,0,0-11.041,2.343l-3.382,1.5,7.692,2.885,8.654-.962.121-.483A4.919,4.919,0,0,0,342.423,248Z" transform="translate(-272.727 -137.994)" fill="#a1764a"/><path d="M200.77,210.663a2.643,2.643,0,0,1-.447,1.474l-2.058,3.086-3.077,4.614-1.082,1.624H180.763a12.731,12.731,0,0,1-5.686-1.341l-1.447-.723,3.973-.651a13.663,13.663,0,0,0,10.009-7.372q.124-.251.273-.488A6.1,6.1,0,0,1,193.069,208h5.039a2.661,2.661,0,0,1,2.661,2.663Z" transform="translate(-136.911 -102.802)" fill="#bc8d5d"/><path d="M171.135,255.316a7.842,7.842,0,0,1-1.075,3.963,2.469,2.469,0,0,1-2.129,1.221h-7.72a4.808,4.808,0,0,0-3.846,1.923,4.8,4.8,0,0,1-3.846,1.923,17.446,17.446,0,0,1-6.49-1.25l-5.115-2.046a7.674,7.674,0,0,0-2.857-.55H129.7a1.7,1.7,0,0,1-1.7-1.7,5.034,5.034,0,0,1,2.784-4.5,4.953,4.953,0,0,1,1.094-.4,5.041,5.041,0,0,1,1.156-.135H137.7a10.122,10.122,0,0,1,5.206,1.442,10.138,10.138,0,0,0,5.208,1.443h2.118a17.852,17.852,0,0,0,7.153-1.5l8.788-3.845A1.894,1.894,0,0,0,166.46,248l1.18.787a7.845,7.845,0,0,1,2.636,2.96q.144.281.263.572A7.857,7.857,0,0,1,171.135,255.316Z" transform="translate(-96.765 -137.994)" fill="#bc8d5d"/><path d="M278.093,239.692l-6.731,2.885a12.951,12.951,0,0,0-9.923-5.74,13.664,13.664,0,0,0,3.429-4.348q.124-.251.273-.488h.7a12.957,12.957,0,0,1,9.675,4.339q.361.406.69.844Z" transform="translate(-214.167 -123.917)" fill="#cc9f74"/><path d="M120,353.927h0a1.927,1.927,0,0,0,1.919,1.927l8.293.031a7.692,7.692,0,0,1,2.839.554l3.345,1.343a26.523,26.523,0,0,0,9.885,1.911H147.4a4.807,4.807,0,0,0,3.846-1.923h0a4.808,4.808,0,0,1,3.846-1.923h1.442v3.846h5.769v-5.769A1.923,1.923,0,0,0,160.384,352h-7.211a4.808,4.808,0,0,0-3.846,1.923h0a4.808,4.808,0,0,1-3.846,1.923h0a17.475,17.475,0,0,1-6.49-1.25l-5.115-2.046a7.691,7.691,0,0,0-2.857-.55h-9.092A1.927,1.927,0,0,0,120,353.926Z" transform="translate(-89.726 -229.494)" fill="gray"/><path d="M20.2,111.54a.448.448,0,0,1-.249-.516l.266-1.066a.448.448,0,0,1,.62-.3A46.54,46.54,0,0,0,38.9,113.834l.053-1.922a44.626,44.626,0,0,1-17.319-4,1.666,1.666,0,0,1,.363-3.15,10.736,10.736,0,0,1,4.906.169,28.423,28.423,0,0,0,16.288-.386l26.795-8.69a23.55,23.55,0,0,1,.6,4l-.975.217a11.39,11.39,0,0,0-4.947,2.481L65.92,104a9.461,9.461,0,0,1,4.109-2.061l.6-.134a23.526,23.526,0,0,1-.654,5.086l1.869.453a25.508,25.508,0,0,0-.264-12.99.962.962,0,0,0-1.221-.65L48.615,100.76l1.479-2.588a5.966,5.966,0,0,0,.361-5.2,2.885,2.885,0,0,0-4.6-1.079l-2.515,2.249a19.417,19.417,0,0,0-2.321,2.474,17.552,17.552,0,0,1-11.793,6.561l-.984.11q-.417-.1-.832-.212a12.671,12.671,0,0,0-5.789-.2,3.583,3.583,0,0,0-2.4,5.309,2.363,2.363,0,0,0-.863,1.311l-.266,1.065a2.371,2.371,0,0,0,1.319,2.734l2.324,1.056a37.481,37.481,0,0,0,6.939,2.365l.439-1.872a35.553,35.553,0,0,1-6.582-2.243ZM44.621,95.571l2.515-2.249a.962.962,0,0,1,1.534.36,4.054,4.054,0,0,1-.245,3.535l-1.952,3.417-3.146-3.776a17.48,17.48,0,0,1,1.3-1.287Zm-2.549,2.787,2.968,3.561-2.441.792c-.207.067-.414.13-.622.192l-1.969-2.462a19.214,19.214,0,0,0,2.064-2.084Zm-3.578,3.27,1.438,1.8a26.467,26.467,0,0,1-5.955.581A19.6,19.6,0,0,0,38.493,101.628Z" transform="translate(0 0)"/><path d="M157.056,209.079a8.826,8.826,0,0,0-2.958-3.323l-1.178-.785,0,0a.956.956,0,0,0-.533-.161h-.009a28.141,28.141,0,0,0-5.283.5,3.623,3.623,0,0,0-3.206-5.31h-5.039a7.061,7.061,0,0,0-6.316,3.9,12.651,12.651,0,0,1-8.456,6.683c-.151-.006-.3-.01-.455-.01h-4.662a6.026,6.026,0,0,0-2.682.633,5.963,5.963,0,0,0-3.315,5.363,2.641,2.641,0,0,0,.3,1.234,2.884,2.884,0,0,0-.139,4.675h0l1.421,1.2a13.721,13.721,0,0,0,8.847,3.239h31.873a.961.961,0,0,0,.961-.962v-5.769a2.866,2.866,0,0,0-.456-1.553,3.422,3.422,0,0,0,1.039-1.105A8.769,8.769,0,0,0,157.056,209.079Zm-4.794-1.651a.914.914,0,0,1-.556.773l-4.814,2.106-1.392-1.855q-.127-.169-.259-.334l.323-.485a26.221,26.221,0,0,1,6.475-.9.926.926,0,0,1,.222.694Zm-13.416-5.5h5.039a1.7,1.7,0,0,1,1.414,2.642l-1.4,2.1a14.019,14.019,0,0,0-8.142-3.709c.078-.059.157-.116.239-.171a5.122,5.122,0,0,1,2.85-.863Zm-4.619,2.885h.14a12.051,12.051,0,0,1,9.6,4.8l1.12,1.493-2.164.947a16.9,16.9,0,0,1-2.875.963,13.855,13.855,0,0,0-8-5A14.683,14.683,0,0,0,134.228,204.808Zm-3.951,4.865a11.943,11.943,0,0,1,7.553,3.706q-.833.082-1.679.083h-2.117a9.161,9.161,0,0,1-4.712-1.3,11.074,11.074,0,0,0-1.671-.82,14.527,14.527,0,0,0,2.626-1.664Zm-13.141,3.257a4.094,4.094,0,0,1,1.822-.43h4.662a9.161,9.161,0,0,1,4.712,1.3,11.084,11.084,0,0,0,5.7,1.58h2.117a18.7,18.7,0,0,0,7.539-1.577l8.788-3.845a2.813,2.813,0,0,0,1.584-1.764,6.9,6.9,0,0,1,1.282,1.755c.081.159.154.321.222.484a15.526,15.526,0,0,0-7.608,6.87h-1.824a5.8,5.8,0,0,0-4.615,2.308,3.865,3.865,0,0,1-3.077,1.538,16.441,16.441,0,0,1-6.133-1.181l-5.115-2.046a8.616,8.616,0,0,0-3.214-.619h-8.361a.735.735,0,0,1-.734-.734,4.051,4.051,0,0,1,2.252-3.643ZM123.4,225a11.8,11.8,0,0,1-6.425-1.908l6.2.023a6.7,6.7,0,0,1,2.484.485L129,224.942l.147.057Zm25.142,0h-3.877c.111-.124.219-.251.319-.385a3.865,3.865,0,0,1,3.077-1.538h.481Zm5.769,0H150.46v-2.885a.961.961,0,0,0-.962-.962h-1.442a5.8,5.8,0,0,0-4.615,2.308A3.865,3.865,0,0,1,140.365,225h-1.122a25.448,25.448,0,0,1-9.527-1.842l-3.345-1.343a8.615,8.615,0,0,0-3.193-.623l-8.293-.031a.965.965,0,1,1,0-1.93h9.092a6.7,6.7,0,0,1,2.5.481l5.115,2.046a18.356,18.356,0,0,0,6.847,1.319,5.8,5.8,0,0,0,4.615-2.308,3.865,3.865,0,0,1,3.077-1.538h7.211a.963.963,0,0,1,.962.962Zm.847-8.438a1.512,1.512,0,0,1-1.3.746H150.2a13.6,13.6,0,0,1,5.857-4.987A6.856,6.856,0,0,1,155.153,216.562Z" transform="translate(-82.688 -95.763)"/></g></g></svg>