<svg xmlns="http://www.w3.org/2000/svg" xmlns:xlink="http://www.w3.org/1999/xlink" width="108.914" height="108.914" viewBox="0 0 108.914 108.914"><defs><filter id="a" x="0" y="0" width="108.914" height="108.914" filterUnits="userSpaceOnUse"><feOffset dy="3" input="SourceAlpha"/><feGaussianBlur stdDeviation="3" result="b"/><feFlood flood-opacity="0.161"/><feComposite operator="in" in2="b"/><feComposite in="SourceGraphic"/></filter><clipPath id="c"><rect width="56.988" height="56.977" transform="translate(0 0)" fill="none"/></clipPath></defs><g transform="translate(-799.5 -2534.157)"><g transform="translate(0 587.946)"><g transform="translate(808.5 1952.211)"><g transform="matrix(1, 0, 0, 1, -9, -6)" filter="url(#a)"><g transform="translate(9 6)" fill="#d8cabd" opacity="0.859"><path d="M 45.45676803588867 89.41407012939453 C 39.52198028564453 89.41407012939453 33.76551818847656 88.25206756591797 28.34726715087891 85.96034240722656 C 23.11311721801758 83.74648284912109 18.41204261779785 80.57682800292969 14.37464332580566 76.5394287109375 C 10.33724308013916 72.50202941894531 7.167593002319336 67.80095672607422 4.953730583190918 62.56679534912109 C 2.662005424499512 57.14855575561523 1.500005483627319 51.39208221435547 1.500005483627319 45.45729446411133 C 1.500005483627319 39.52198028564453 2.662005424499512 33.76551818847656 4.953730583190918 28.34726905822754 C 7.167593002319336 23.11310577392578 10.33724308013916 18.41203117370605 14.37464332580566 14.37464332580566 C 18.41204261779785 10.33724403381348 23.11311721801758 7.167593955993652 28.34726715087891 4.953731060028076 C 33.76551818847656 2.662006139755249 39.52198028564453 1.500006198883057 45.45676803588867 1.500006198883057 C 51.39155578613281 1.500006198883057 57.14802932739258 2.662006139755249 62.56626892089844 4.953731060028076 C 67.80043029785156 7.167593955993652 72.50150299072266 10.33724403381348 76.53890228271484 14.37464332580566 C 80.57630920410156 18.41203117370605 83.74595642089844 23.11310577392578 85.95981597900391 28.34726905822754 C 88.25154113769531 33.76551818847656 89.41354370117188 39.52198028564453 89.41354370117188 45.45676803588867 C 89.41354370117188 51.39208221435547 88.25154113769531 57.14855575561523 85.95981597900391 62.56679534912109 C 83.74595642089844 67.80095672607422 80.57630920410156 72.50202941894531 76.53890228271484 76.5394287109375 C 72.50150299072266 80.57682800292969 67.80043029785156 83.74648284912109 62.56626892089844 85.96034240722656 C 57.14802932739258 88.25206756591797 51.39155578613281 89.41407012939453 45.45676803588867 89.41407012939453 Z" stroke="none"/><path d="M 45.45676803588867 3 C 39.72381210327148 3 34.1639404296875 4.12213134765625 28.93159484863281 6.335227966308594 C 23.87622833251953 8.473472595214844 19.33542633056641 11.53517150878906 15.43529510498047 15.435302734375 C 11.53517150878906 19.33543395996094 8.473464965820312 23.87622833251953 6.335227966308594 28.93160247802734 C 4.122123718261719 34.16394424438477 3 39.72381591796875 3 45.4572868347168 C 3 51.19024658203125 4.122123718261719 56.75011825561523 6.335227966308594 61.98246002197266 C 8.473464965820312 67.03782653808594 11.53517150878906 71.57862854003906 15.43529510498047 75.478759765625 C 19.33542633056641 79.37889099121094 23.87622833251953 82.44058990478516 28.93159484863281 84.57883453369141 C 34.1639404296875 86.79193115234375 39.72381210327148 87.9140625 45.45676803588867 87.9140625 C 51.18972396850586 87.9140625 56.74959564208984 86.79193115234375 61.98194122314453 84.57883453369141 C 67.03730773925781 82.44058990478516 71.57810974121094 79.37889099121094 75.47824096679688 75.478759765625 C 79.37837219238281 71.57862854003906 82.44007110595703 67.03782653808594 84.57830810546875 61.98246002197266 C 86.79141235351562 56.75011825561523 87.91353607177734 51.19024658203125 87.91353607177734 45.4567756652832 C 87.91353607177734 39.72381591796875 86.79141235351562 34.16394424438477 84.57830810546875 28.93160247802734 C 82.44007110595703 23.87622833251953 79.37837219238281 19.33543395996094 75.47824096679688 15.435302734375 C 71.57810974121094 11.53517150878906 67.03730773925781 8.473472595214844 61.98194122314453 6.335227966308594 C 56.74959564208984 4.12213134765625 51.18972396850586 3 45.45676803588867 3 M 45.45676803588867 0 C 70.56185150146484 0 90.91353607177734 20.35169219970703 90.91353607177734 45.4567756652832 L 90.91353607177734 45.4572868347168 C 90.91353607177734 70.5623779296875 70.56185150146484 90.9140625 45.45676803588867 90.9140625 C 20.3516845703125 90.9140625 0 70.5623779296875 0 45.4572868347168 L 0 45.4567756652832 C 0 20.35169219970703 20.3516845703125 0 45.45676803588867 0 Z" stroke="none" fill="#fff"/></g></g><g transform="translate(0 0)" fill="none"><path d="M45.457,0A45.457,45.457,0,0,1,90.914,45.457h0A45.457,45.457,0,0,1,0,45.457H0A45.457,45.457,0,0,1,45.457,0Z" stroke="none"/><path d="M 45.45676803588867 3 C 39.72381210327148 3 34.1639404296875 4.12213134765625 28.93159484863281 6.335227966308594 C 23.87622833251953 8.473472595214844 19.33542633056641 11.53517150878906 15.43529510498047 15.435302734375 C 11.53517150878906 19.33543395996094 8.473464965820312 23.87622833251953 6.335227966308594 28.93160247802734 C 4.122123718261719 34.16394424438477 3 39.72381591796875 3 45.4572868347168 C 3 51.19024658203125 4.122123718261719 56.75011825561523 6.335227966308594 61.98246002197266 C 8.473464965820312 67.03782653808594 11.53517150878906 71.57862854003906 15.43529510498047 75.478759765625 C 19.33542633056641 79.37889099121094 23.87622833251953 82.44058990478516 28.93159484863281 84.57883453369141 C 34.1639404296875 86.79193115234375 39.72381210327148 87.9140625 45.45676803588867 87.9140625 C 51.18972396850586 87.9140625 56.74959564208984 86.79193115234375 61.98194122314453 84.57883453369141 C 67.03730773925781 82.44058990478516 71.57810974121094 79.37889099121094 75.47824096679688 75.478759765625 C 79.37837219238281 71.57862854003906 82.44007110595703 67.03782653808594 84.57830810546875 61.98246002197266 C 86.79141235351562 56.75011825561523 87.91353607177734 51.19024658203125 87.91353607177734 45.4567756652832 C 87.91353607177734 39.72381591796875 86.79141235351562 34.16394424438477 84.57830810546875 28.93160247802734 C 82.44007110595703 23.87622833251953 79.37837219238281 19.33543395996094 75.47824096679688 15.435302734375 C 71.57810974121094 11.53517150878906 67.03730773925781 8.473472595214844 61.98194122314453 6.335227966308594 C 56.74959564208984 4.12213134765625 51.18972396850586 3 45.45676803588867 3 M 45.45676803588867 0 C 70.56185150146484 0 90.91353607177734 20.35169219970703 90.91353607177734 45.4567756652832 L 90.91353607177734 45.4572868347168 C 90.91353607177734 70.5623779296875 70.56185150146484 90.9140625 45.45676803588867 90.9140625 C 20.3516845703125 90.9140625 0 70.5623779296875 0 45.4572868347168 L 0 45.4567756652832 C 0 20.35169219970703 20.3516845703125 0 45.45676803588867 0 Z" stroke="none" fill="#fff"/></g></g></g><g transform="translate(825.463 2557.126)"><g clip-path="url(#c)"><path d="M34.238,24.081h.013A5.5,5.5,0,0,0,34,25.726H23.893a.918.918,0,0,1-.919-.919V22.969a.918.918,0,0,1,.919-.919h7.716a6.306,6.306,0,0,0,2.629,2.031" fill="#cb8d57"/><path d="M24.7,30.1a8.688,8.688,0,0,0,.116-1.422V25.731H34a5.5,5.5,0,0,0,1.948,4.2,9.9,9.9,0,0,1-3.09,1.689l-1.615.539.122,1.829A47.015,47.015,0,0,0,32.7,42.38a7.337,7.337,0,0,0-2.37,5.407H10.109a11.751,11.751,0,0,0-4.038-9.133,8.485,8.485,0,0,1,2.7-.661l7.985-.613a8.855,8.855,0,0,0,1.648-.286A8.727,8.727,0,0,0,24.7,30.1Z" fill="#c58b61"/><path d="M36.019,51.463H29.407l-.919-.919-1.838.919H2.757A1.836,1.836,0,0,1,.919,49.627v-1.84h33.5q.722,1.869,1.6,3.676" fill="#d9a277"/><path d="M10.109,47.786H.919V46.468a8.5,8.5,0,0,1,5.152-7.816,11.752,11.752,0,0,1,4.038,9.134" fill="#ffcd58"/><path d="M32.7,42.38a46.99,46.99,0,0,0,1.723,5.407H30.326A7.337,7.337,0,0,1,32.7,42.38" fill="#ffcd58"/><path d="M54.026,15.091a3.677,3.677,0,1,1-5.32,3.289v-.139a3.676,3.676,0,0,1,.317-1.493L52.065,9.9a3.676,3.676,0,0,0,.317-1.493V8.272A3.676,3.676,0,0,0,45.03,8.26v.151A3.676,3.676,0,0,0,45.347,9.9l3.042,6.844a3.676,3.676,0,0,1,.317,1.493,6.318,6.318,0,0,1-3.925,5.847A5.52,5.52,0,0,0,42.509,21.1l.173-.124a3.675,3.675,0,0,0,1.272-4.357l-2.078-5.2a7.337,7.337,0,0,1-.522-2.727V8.27a7.352,7.352,0,0,1,14.7-.342q0,.171,0,.342a11.678,11.678,0,0,1-1.233,5.223Z" fill="#68b9a7"/><path d="M25.006,15.091l-.8-1.6a11.678,11.678,0,0,1-1.232-5.22,7.352,7.352,0,1,1,14.7-.343c0,.114,0,.229,0,.343v.422a7.338,7.338,0,0,1-.526,2.731l-2.074,5.195a3.676,3.676,0,0,0,1.276,4.356l.173.124a5.526,5.526,0,0,0-2.272,2.987h-.013a6.315,6.315,0,0,1-2.629-2.026c-.068-.088-.133-.179-.2-.271a6.3,6.3,0,0,1-1.088-3.544,3.676,3.676,0,0,1,.317-1.493L33.68,9.908A3.676,3.676,0,0,0,34,8.415V8.276a3.676,3.676,0,0,0-7.352,0v.139a3.676,3.676,0,0,0,.317,1.493L30,16.752a3.676,3.676,0,0,1,.317,1.493v.139A3.676,3.676,0,1,1,25,15.1Z" fill="#68b9a7"/><path d="M44.78,24.087A5.515,5.515,0,1,1,42.508,21.1a5.516,5.516,0,0,1,2.272,2.988m-3.427,1.644a1.838,1.838,0,1,0-1.838,1.838,1.838,1.838,0,0,0,1.838-1.838v0Z" fill="#99a3b0"/><path d="M47.787,32.164l-.122,1.829a46.91,46.91,0,0,1-7.23,22.065H38.6a46.854,46.854,0,0,1-2.573-4.595q-.882-1.8-1.6-3.676a46.831,46.831,0,0,1-3.052-13.794l-.127-1.829,1.615-.539a9.9,9.9,0,0,0,3.09-1.689,5.514,5.514,0,0,0,7.131,0,9.9,9.9,0,0,0,3.09,1.689Z" fill="#c0c6d0"/><path d="M55.216,14.767l.431-.862a12.662,12.662,0,0,0,1.33-5.634,8.271,8.271,0,0,0-16.542,0v.422a8.248,8.248,0,0,0,.591,3.072l2.078,5.2A2.748,2.748,0,0,1,42.426,20a6.407,6.407,0,0,0-5.82,0,2.748,2.748,0,0,1-.679-3.037l2.078-5.2a8.218,8.218,0,0,0,.595-3.07V8.271a8.271,8.271,0,1,0-16.542,0,12.662,12.662,0,0,0,1.33,5.634l.431.862a4.587,4.587,0,0,0-.787,6.438l.087.107a1.838,1.838,0,0,0-1.06,1.663v1.838A1.839,1.839,0,0,0,23.9,26.651v2.133l-.575-.23a.919.919,0,1,0-.682,1.707l1,.4a7.79,7.79,0,0,1-.432,1.214l-.593-.445a.919.919,0,1,0-1.169,1.419q.033.027.069.051l.74.555a7.907,7.907,0,0,1-.7.786l-.592-.789a.919.919,0,0,0-1.47,1.1l.61.813a7.724,7.724,0,0,1-3.411,1.1L8.7,37.077A9.419,9.419,0,0,0,0,46.469v3.156a2.76,2.76,0,0,0,2.757,2.757h24.11l1.439-.72.72.72h6.43a47.523,47.523,0,0,0,2.365,4.169l.271.426h2.847l.271-.426a47.97,47.97,0,0,0,7.372-22.5l.169-2.538-2.289-.763a8.946,8.946,0,0,1-1.977-.942A6.4,6.4,0,0,0,45.846,24.6a7.193,7.193,0,0,0,3.064-3.209,4.593,4.593,0,1,0,6.3-6.621Zm-11.1,10.965a5.852,5.852,0,1,0-.005,0ZM23.9,24.813V22.974H26.65a4.584,4.584,0,0,0,3.471-1.588,7.2,7.2,0,0,0,3.064,3.21c-.013.072-.025.143-.036.216ZM27.807,9.529a2.751,2.751,0,0,1-.238-1.12V8.271a2.757,2.757,0,1,1,5.514,0V8.41a2.751,2.751,0,0,1-.238,1.12L30.326,15.2ZM25.03,13.082A10.818,10.818,0,0,1,23.894,8.27a6.433,6.433,0,0,1,12.866,0v.422a6.393,6.393,0,0,1-.46,2.389l-2.078,5.2a4.583,4.583,0,0,0,.864,4.8,6.467,6.467,0,0,0-1.3,1.745,5.375,5.375,0,0,1-2.538-4.579,2.751,2.751,0,0,1,.238-1.12l3.042-6.845a4.565,4.565,0,0,0,.4-1.866V8.271a4.6,4.6,0,0,0-9.19,0V8.41a4.565,4.565,0,0,0,.4,1.866l3.042,6.845a2.751,2.751,0,0,1,.238,1.12v.139a2.757,2.757,0,1,1-2.757-2.757V13.785a4.6,4.6,0,0,0-1.191.157ZM8.838,38.91l7.984-.614a9.71,9.71,0,0,0,1.2-.171l1.457,1.943a.919.919,0,0,0,1.47-1.1l-1.066-1.421a9.512,9.512,0,0,0,1.318-.693l1.034,1.379a.919.919,0,0,0,1.47-1.1l-1.048-1.4c.172-.16.34-.325.5-.5q.3-.323.563-.666l1.455,1.092a.919.919,0,1,0,1.169-1.419q-.033-.027-.069-.051L24.707,33a9.519,9.519,0,0,0,.648-1.655l1.873.749a.919.919,0,0,0,.683-1.707L25.695,29.5c.024-.275.037-.552.037-.831V26.65H33.15a6.406,6.406,0,0,0,1.4,3.162,8.954,8.954,0,0,1-1.978.942l-2.288.763.169,2.538a47.75,47.75,0,0,0,1.233,8.038,8.3,8.3,0,0,0-2.223,4.775H11a12.919,12.919,0,0,0-3.171-7.809,7.52,7.52,0,0,1,1.013-.149ZM33.1,46.868H31.313a6.456,6.456,0,0,1,.96-2.565q.38,1.3.827,2.565M5.928,39.748a10.823,10.823,0,0,1,3.227,7.12H1.838v-.4a7.621,7.621,0,0,1,4.09-6.721Zm23.859,10.8L28.67,49.425l-2.236,1.118H2.757a.921.921,0,0,1-.919-.919v-.919H33.8q.372.927.782,1.838Zm2.5-16.611-.075-1.121.941-.314a10.814,10.814,0,0,0,2.8-1.415A6.411,6.411,0,0,0,38.6,32.1V54.3a46.132,46.132,0,0,1-6.313-20.366Zm14.538-1.121-.075,1.121A46.132,46.132,0,0,1,40.435,54.3V32.1a6.391,6.391,0,0,0,2.646-1.015,10.813,10.813,0,0,0,2.8,1.415ZM48.706,15.2l-2.52-5.671a2.751,2.751,0,0,1-.238-1.12V8.271a2.757,2.757,0,0,1,5.514,0h0V8.41a2.751,2.751,0,0,1-.238,1.12Zm3.676,5.939a2.76,2.76,0,0,1-2.757-2.757v-.139a2.751,2.751,0,0,1,.238-1.12L52.9,10.276a4.565,4.565,0,0,0,.4-1.866V8.271a4.595,4.595,0,1,0-9.19,0V8.41a4.565,4.565,0,0,0,.4,1.866l3.042,6.845a2.751,2.751,0,0,1,.238,1.12,5.373,5.373,0,0,1-2.538,4.579,6.467,6.467,0,0,0-1.3-1.745,4.583,4.583,0,0,0,.864-4.8l-2.078-5.2a6.433,6.433,0,0,1-.46-2.389V8.271a6.433,6.433,0,0,1,12.866,0A10.806,10.806,0,0,1,54,13.083l-.43.86a4.6,4.6,0,0,0-1.191-.157v1.838a2.757,2.757,0,0,1,0,5.514h0Z" fill="#040405"/><path d="M39.516,28.488a2.757,2.757,0,1,0-2.757-2.757,2.757,2.757,0,0,0,2.757,2.757m0-3.676a.919.919,0,1,1-.919.919A.918.918,0,0,1,39.516,24.812Z" fill="#040405"/></g></g></g></svg>