<svg xmlns="http://www.w3.org/2000/svg" xmlns:xlink="http://www.w3.org/1999/xlink" width="108.914" height="108.914" viewBox="0 0 108.914 108.914"><defs><filter id="a" x="0" y="0" width="108.914" height="108.914" filterUnits="userSpaceOnUse"><feOffset dy="3" input="SourceAlpha"/><feGaussianBlur stdDeviation="3" result="b"/><feFlood flood-opacity="0.161"/><feComposite operator="in" in2="b"/><feComposite in="SourceGraphic"/></filter><clipPath id="c"><rect width="54.759" height="53.04" transform="translate(0 0)" fill="none"/></clipPath></defs><g transform="translate(-799.5 -2534.157)"><g transform="translate(0 587.946)"><g transform="translate(808.5 1952.211)"><g transform="matrix(1, 0, 0, 1, -9, -6)" filter="url(#a)"><g transform="translate(9 6)" fill="#d8cabd" opacity="0.859"><path d="M 45.45676803588867 89.41407012939453 C 39.52198028564453 89.41407012939453 33.76551818847656 88.25206756591797 28.34726715087891 85.96034240722656 C 23.11311721801758 83.74648284912109 18.41204261779785 80.57682800292969 14.37464332580566 76.5394287109375 C 10.33724308013916 72.50202941894531 7.167593002319336 67.80095672607422 4.953730583190918 62.56679534912109 C 2.662005424499512 57.14855575561523 1.500005483627319 51.39208221435547 1.500005483627319 45.45729446411133 C 1.500005483627319 39.52198028564453 2.662005424499512 33.76551818847656 4.953730583190918 28.34726905822754 C 7.167593002319336 23.11310577392578 10.33724308013916 18.41203117370605 14.37464332580566 14.37464332580566 C 18.41204261779785 10.33724403381348 23.11311721801758 7.167593955993652 28.34726715087891 4.953731060028076 C 33.76551818847656 2.662006139755249 39.52198028564453 1.500006198883057 45.45676803588867 1.500006198883057 C 51.39155578613281 1.500006198883057 57.14802932739258 2.662006139755249 62.56626892089844 4.953731060028076 C 67.80043029785156 7.167593955993652 72.50150299072266 10.33724403381348 76.53890228271484 14.37464332580566 C 80.57630920410156 18.41203117370605 83.74595642089844 23.11310577392578 85.95981597900391 28.34726905822754 C 88.25154113769531 33.76551818847656 89.41354370117188 39.52198028564453 89.41354370117188 45.45676803588867 C 89.41354370117188 51.39208221435547 88.25154113769531 57.14855575561523 85.95981597900391 62.56679534912109 C 83.74595642089844 67.80095672607422 80.57630920410156 72.50202941894531 76.53890228271484 76.5394287109375 C 72.50150299072266 80.57682800292969 67.80043029785156 83.74648284912109 62.56626892089844 85.96034240722656 C 57.14802932739258 88.25206756591797 51.39155578613281 89.41407012939453 45.45676803588867 89.41407012939453 Z" stroke="none"/><path d="M 45.45676803588867 3 C 39.72381210327148 3 34.1639404296875 4.12213134765625 28.93159484863281 6.335227966308594 C 23.87622833251953 8.473472595214844 19.33542633056641 11.53517150878906 15.43529510498047 15.435302734375 C 11.53517150878906 19.33543395996094 8.473464965820312 23.87622833251953 6.335227966308594 28.93160247802734 C 4.122123718261719 34.16394424438477 3 39.72381591796875 3 45.4572868347168 C 3 51.19024658203125 4.122123718261719 56.75011825561523 6.335227966308594 61.98246002197266 C 8.473464965820312 67.03782653808594 11.53517150878906 71.57862854003906 15.43529510498047 75.478759765625 C 19.33542633056641 79.37889099121094 23.87622833251953 82.44058990478516 28.93159484863281 84.57883453369141 C 34.1639404296875 86.79193115234375 39.72381210327148 87.9140625 45.45676803588867 87.9140625 C 51.18972396850586 87.9140625 56.74959564208984 86.79193115234375 61.98194122314453 84.57883453369141 C 67.03730773925781 82.44058990478516 71.57810974121094 79.37889099121094 75.47824096679688 75.478759765625 C 79.37837219238281 71.57862854003906 82.44007110595703 67.03782653808594 84.57830810546875 61.98246002197266 C 86.79141235351562 56.75011825561523 87.91353607177734 51.19024658203125 87.91353607177734 45.4567756652832 C 87.91353607177734 39.72381591796875 86.79141235351562 34.16394424438477 84.57830810546875 28.93160247802734 C 82.44007110595703 23.87622833251953 79.37837219238281 19.33543395996094 75.47824096679688 15.435302734375 C 71.57810974121094 11.53517150878906 67.03730773925781 8.473472595214844 61.98194122314453 6.335227966308594 C 56.74959564208984 4.12213134765625 51.18972396850586 3 45.45676803588867 3 M 45.45676803588867 0 C 70.56185150146484 0 90.91353607177734 20.35169219970703 90.91353607177734 45.4567756652832 L 90.91353607177734 45.4572868347168 C 90.91353607177734 70.5623779296875 70.56185150146484 90.9140625 45.45676803588867 90.9140625 C 20.3516845703125 90.9140625 0 70.5623779296875 0 45.4572868347168 L 0 45.4567756652832 C 0 20.35169219970703 20.3516845703125 0 45.45676803588867 0 Z" stroke="none" fill="#fff"/></g></g><g transform="translate(0 0)" fill="none"><path d="M45.457,0A45.457,45.457,0,0,1,90.914,45.457h0A45.457,45.457,0,0,1,0,45.457H0A45.457,45.457,0,0,1,45.457,0Z" stroke="none"/><path d="M 45.45676803588867 3 C 39.72381210327148 3 34.1639404296875 4.12213134765625 28.93159484863281 6.335227966308594 C 23.87622833251953 8.473472595214844 19.33542633056641 11.53517150878906 15.43529510498047 15.435302734375 C 11.53517150878906 19.33543395996094 8.473464965820312 23.87622833251953 6.335227966308594 28.93160247802734 C 4.122123718261719 34.16394424438477 3 39.72381591796875 3 45.4572868347168 C 3 51.19024658203125 4.122123718261719 56.75011825561523 6.335227966308594 61.98246002197266 C 8.473464965820312 67.03782653808594 11.53517150878906 71.57862854003906 15.43529510498047 75.478759765625 C 19.33542633056641 79.37889099121094 23.87622833251953 82.44058990478516 28.93159484863281 84.57883453369141 C 34.1639404296875 86.79193115234375 39.72381210327148 87.9140625 45.45676803588867 87.9140625 C 51.18972396850586 87.9140625 56.74959564208984 86.79193115234375 61.98194122314453 84.57883453369141 C 67.03730773925781 82.44058990478516 71.57810974121094 79.37889099121094 75.47824096679688 75.478759765625 C 79.37837219238281 71.57862854003906 82.44007110595703 67.03782653808594 84.57830810546875 61.98246002197266 C 86.79141235351562 56.75011825561523 87.91353607177734 51.19024658203125 87.91353607177734 45.4567756652832 C 87.91353607177734 39.72381591796875 86.79141235351562 34.16394424438477 84.57830810546875 28.93160247802734 C 82.44007110595703 23.87622833251953 79.37837219238281 19.33543395996094 75.47824096679688 15.435302734375 C 71.57810974121094 11.53517150878906 67.03730773925781 8.473472595214844 61.98194122314453 6.335227966308594 C 56.74959564208984 4.12213134765625 51.18972396850586 3 45.45676803588867 3 M 45.45676803588867 0 C 70.56185150146484 0 90.91353607177734 20.35169219970703 90.91353607177734 45.4567756652832 L 90.91353607177734 45.4572868347168 C 90.91353607177734 70.5623779296875 70.56185150146484 90.9140625 45.45676803588867 90.9140625 C 20.3516845703125 90.9140625 0 70.5623779296875 0 45.4572868347168 L 0 45.4567756652832 C 0 20.35169219970703 20.3516845703125 0 45.45676803588867 0 Z" stroke="none" fill="#fff"/></g></g></g><g transform="translate(829.341 2561.541)"><g transform="translate(-2.764 -2.446)"><g transform="translate(0 0)" clip-path="url(#c)"><path d="M61.412,56.232" transform="translate(-6.653 -5.88)" fill="#fff"/><path d="M22.781,16.685a1.068,1.068,0,0,1,1.631.138q1.871,1.835,3.742,3.669,1.431,1.4,2.871,2.789a5.836,5.836,0,0,0,4.393,1.978,5.159,5.159,0,0,0,3.952-1.871c.659-.8,1.27-.823,2.043-.12q2.072,1.886,4.158,3.754,1.394,1.252,2.8,2.49c1.1.97,2.245,1.9,3.314,2.9a3.081,3.081,0,0,1,.878,2.886c-.03.184-.094.363-.16.612.85,0,1.747-.161,2.367.622V50.6a2.294,2.294,0,0,1-1.872.632q-25.7-.023-51.4-.012c-1.1,0-1.387-.291-1.387-1.411V37.2c0-.94.334-1.281,1.256-1.282H5.345a1.511,1.511,0,0,0,.033-.208q0-5.248-.005-10.494a11.867,11.867,0,0,0-1.4-5.289,14.56,14.56,0,0,1-1.6-5.012,11.585,11.585,0,0,1-.177-2.424A14.379,14.379,0,0,1,4.978,5.051,17.8,17.8,0,0,1,6.894,3.064a2.419,2.419,0,0,1,3.462.09C11.471,4.243,12.58,5.338,13.7,6.42c1.23,1.186,2.478,2.351,3.7,3.541a1.067,1.067,0,0,1,.182,1.563,1.184,1.184,0,0,1-1.663-.012q-1.408-1.351-2.8-2.716Q11.045,6.765,8.977,4.722c-.049-.048-.094-.125-.151-.136-.133-.024-.308-.073-.4-.011a5.349,5.349,0,0,0-.745.612A11.423,11.423,0,0,0,5.05,9.3a10.866,10.866,0,0,0-.017,7.9,1.019,1.019,0,0,0,1.142.773c1.454-.074,2.915,0,4.373-.03a4.3,4.3,0,0,1,3.565,1.7c1.093,1.335,2.126,2.719,3.189,4.079.852,1.09,1.716,2.171,2.567,3.261,1.033,1.321,2.042,2.66,3.094,3.964a16.234,16.234,0,0,0,2.881,3.32,8.2,8.2,0,0,0,4.916,1.64c6.072.014,12.144,0,18.217.009a1.3,1.3,0,0,0,1.37-.777,1.225,1.225,0,0,0-.467-1.5c-1.436-1.266-2.877-2.527-4.306-3.8-1.573-1.4-3.134-2.822-4.7-4.233-.109-.1-.227-.187-.339-.278A8.617,8.617,0,0,1,36.781,27.2a7.375,7.375,0,0,1-6.489-1.756c-1.492-1.338-2.877-2.8-4.308-4.2-.111-.108-.218-.219-.328-.329-1.029-1.025-2.075-2.034-3.066-3.094-.136-.145-.019-.547.014-.826.012-.107.115-.2.177-.306M2.179,49.122h50.4V38.012H2.179ZM24.376,35.9c-.712-.769-1.437-1.486-2.083-2.267-.979-1.185-1.9-2.413-2.849-3.626q-1.735-2.227-3.464-4.458-1.618-2.083-3.239-4.164l-.154,0a19.2,19.2,0,0,0-.518,3C12,28.187,12.028,32,12.021,35.8c0,.027.03.053.055.1ZM9.8,35.887v-.594c0-3.2-.021-6.406.014-9.609a19.094,19.094,0,0,1,.282-2.971c.15-.886.44-1.75.676-2.649H6.5a.7.7,0,0,0,.011.184,15.987,15.987,0,0,1,.978,6.118c-.017,2.979,0,5.958,0,8.937v.583Z" transform="translate(-0.012 -0.249)" fill="#070709"/><path d="M23.29,16.938c-.062.1-.164.2-.177.306-.033.279-.151.681-.014.826.992,1.06,2.037,2.068,3.066,3.094.11.109.218.22.328.329,1.432,1.406,2.816,2.865,4.308,4.2a7.381,7.381,0,0,0,6.489,1.756,8.617,8.617,0,0,0,3.752-1.873c.111.091.23.18.34.278,1.567,1.41,3.128,2.828,4.7,4.232,1.428,1.276,2.869,2.537,4.306,3.8a1.224,1.224,0,0,1,.467,1.5,1.3,1.3,0,0,1-1.37.777c-6.072-.006-12.144,0-18.217-.009a8.2,8.2,0,0,1-4.916-1.64,16.234,16.234,0,0,1-2.881-3.32c-1.052-1.3-2.061-2.643-3.093-3.964-.852-1.09-1.716-2.171-2.568-3.261-1.063-1.359-2.1-2.744-3.189-4.079a4.3,4.3,0,0,0-3.565-1.7c-1.458.031-2.918-.044-4.373.03a1.019,1.019,0,0,1-1.142-.773,10.866,10.866,0,0,1,.017-7.9A11.423,11.423,0,0,1,8.19,5.44a5.349,5.349,0,0,1,.745-.612c.093-.062.268-.013.4.011.057.011.1.088.151.136Q11.558,7.013,13.63,9.05q1.4,1.366,2.8,2.716a1.184,1.184,0,0,0,1.663.012l1.794,1.81a1.1,1.1,0,0,0-.239,1.227.933.933,0,0,0,.944.563,3.482,3.482,0,0,0,.816-.227l1.879,1.787" transform="translate(-0.521 -0.502)" fill="#68b9a7"/><path d="M23.2,16.148a3.448,3.448,0,0,1-.816.226.931.931,0,0,1-.944-.563,1.1,1.1,0,0,1,.239-1.227c.641-.346,1.111-.333,1.5.042.427.41.433.908.019,1.522" transform="translate(-2.312 -1.499)" fill="#0a0b0e"/><rect width="50.399" height="11.11" transform="translate(2.168 37.764)" fill="#ffe8c7"/><path d="M10.58,37.952H8.264v-.583c0-2.979-.014-5.958,0-8.937a15.987,15.987,0,0,0-.978-6.118.7.7,0,0,1-.011-.184h4.274c-.235.9-.526,1.762-.676,2.649a19.094,19.094,0,0,0-.282,2.971c-.035,3.2-.013,6.406-.014,9.609v.594" transform="translate(-0.788 -2.314)" fill="#707d95"/></g></g></g></g></svg>